<svg xmlns="http://www.w3.org/2000/svg" width="31" height="29" viewBox="0 0 31 29">
  <g id="avatarIcon" transform="translate(-1071 -117)">
    <g id="Path_15" data-name="Path 15" transform="translate(1071 117)" fill="none">
      <path d="M15.5,0C24.06,0,31,6.492,31,14.5S24.06,29,15.5,29,0,22.508,0,14.5,6.94,0,15.5,0Z" stroke="none"/>
      <path d="M 15.5 1 C 11.61441040039063 1 7.964630126953125 2.412469863891602 5.222999572753906 4.97722053527832 C 2.499759674072266 7.524770736694336 1 10.90669059753418 1 14.5 C 1 18.09331130981445 2.499759674072266 21.4752311706543 5.222999572753906 24.02277946472168 C 7.964630126953125 26.5875301361084 11.61441040039063 28 15.5 28 C 19.38558959960938 28 23.03536987304688 26.5875301361084 25.77700042724609 24.02277946472168 C 28.50024032592773 21.4752311706543 30 18.09331130981445 30 14.5 C 30 10.90669059753418 28.50024032592773 7.524770736694336 25.77700042724609 4.97722053527832 C 23.03536987304688 2.412469863891602 19.38558959960938 1 15.5 1 M 15.5 0 C 24.06040954589844 0 31 6.491870880126953 31 14.5 C 31 22.50812911987305 24.06040954589844 29 15.5 29 C 6.939590454101563 29 0 22.50812911987305 0 14.5 C 0 6.491870880126953 6.939590454101563 0 15.5 0 Z" stroke="none" fill="#b7b7b7"/>
    </g>
    <g id="Group_11" data-name="Group 11" transform="translate(1072.956 123)">
      <g id="Path_14" data-name="Path 14" transform="translate(9.044 19)" fill="#b7b7b7">
        <path d="M 3.307791471481323 2.823673725128174 L 0.5 2.54686713218689 L 0.5 0.5000000596046448 L 5.5 0.5000000596046448 L 5.5 2.55711817741394 L 3.307791471481323 2.823673725128174 Z" stroke="none"/>
        <path d="M 1 1 L 1 2.093733072280884 L 3.302062034606934 2.320682287216187 L 5 2.114226102828979 L 5 1 L 1 1 M 0 0 L 6 0 L 6 3 L 3.313479900360107 3.32666015625 L 0 3 L 0 0 Z" stroke="none" fill="#b7b7b7"/>
      </g>
      <path id="Path_12" data-name="Path 12" d="M13.412,22a23.458,23.458,0,0,0,6.913-.84l2.5-1.545V14.43l-4.318-2.2a7.793,7.793,0,0,1-1.565,1.54,5.7,5.7,0,0,1-7.059.01A8.107,8.107,0,0,1,8.33,12.23L4,14.43v5.185l1.22.927A33.354,33.354,0,0,0,13.412,22Z" transform="translate(0 0)" fill="#b7b7b7"/>
      <path id="Path_13" data-name="Path 13" d="M13.412,16.433c3.911,0,6.412-5.533,6.412-8.42A6.223,6.223,0,0,0,13.412,2,6.223,6.223,0,0,0,7,8.014C7,10.9,9.5,16.433,13.412,16.433Z" transform="translate(0 -2.433)" fill="#b7b7b7"/>
    </g>
  </g>
</svg>
