<svg xmlns="http://www.w3.org/2000/svg" width="75.617" height="131.924" viewBox="0 0 75.617 131.924">
  <g id="btnPrevLightWithHomeMovie" transform="translate(494.242 451.06) rotate(180)">
    <g id="Rectangle_25" data-name="Rectangle 25" transform="matrix(-0.719, 0.695, -0.695, -0.719, 493.722, 385.315)" fill="none" stroke="#707070" stroke-width="2">
      <rect width="9" height="92" rx="4.5" stroke="none"/>
      <rect x="1" y="1" width="7" height="90" rx="3.5" fill="none"/>
    </g>
    <g id="Rectangle_26" data-name="Rectangle 26" transform="translate(488.104 379.688) rotate(47)" fill="none" stroke="#707070" stroke-width="2">
      <rect width="9" height="95" rx="4.5" stroke="none"/>
      <rect x="1" y="1" width="7" height="93" rx="3.5" fill="none"/>
    </g>
    <g id="Path_23" data-name="Path 23" transform="translate(483 381.566)" fill="#fff">
      <path d="M 4.416074275970459 7.687153339385986 L 3.999072313308716 7.687153339385986 C 2.844743013381958 7.687153339385986 1.149895071983337 6.876044750213623 0.5176730751991272 5.797357559204102 C 0.5570420622825623 5.754015922546387 0.6010826230049133 5.707176685333252 0.6388024091720581 5.667063236236572 C 0.9879624247550964 5.295693397521973 1.51562237739563 4.734483242034912 1.51562237739563 4.043393135070801 L 1.51562237739563 3.968213319778442 L 1.493512392044067 3.896353244781494 L 1.368512392044067 3.490103244781494 L 1.340082406997681 3.397693395614624 L 1.279242396354675 3.322543382644653 L 1.013622403144836 2.994423389434814 L 0.9901024103164673 2.965363264083862 L 0.9625124335289001 2.940123319625854 L 0.4438383877277374 2.465591430664063 C 0.7749569416046143 1.280557632446289 1.820356965065002 0.09655333310365677 3.094482421875 0.09655333310365677 C 3.802512407302856 0.09655333310365677 4.421292304992676 0.5467933416366577 5.641012191772461 1.94947338104248 L 5.673532485961914 1.986883282661438 L 5.712772369384766 2.017173290252686 C 6.373022556304932 2.52686333656311 6.398622512817383 3.736353397369385 6.390742301940918 4.094903469085693 C 6.388602256774902 4.19252347946167 6.38820219039917 4.284223556518555 6.387842178344727 4.372063159942627 C 6.385530948638916 4.940987110137939 6.38430118560791 5.257447242736816 5.823428630828857 6.109724998474121 L 5.649672508239746 6.299353122711182 L 5.647112369537354 6.302143096923828 L 5.64459228515625 6.304973125457764 L 4.416074275970459 7.687153339385986 Z" stroke="none"/>
      <path d="M 3.094482421875 0.5965533256530762 C 2.185714244842529 0.5965533256530762 1.374318599700928 1.414730072021484 1.02077579498291 2.315741062164307 L 1.300012588500977 2.571213245391846 L 1.355192184448242 2.621703147888184 L 1.402252197265625 2.679823398590088 L 1.667872428894043 3.007943153381348 L 1.78953218460083 3.158243179321289 L 1.846402645111084 3.343053340911865 L 1.971402645111084 3.749303340911865 L 2.015622615814209 3.893023252487183 L 2.015622615814209 4.043393135070801 C 2.015622615814209 4.817453384399414 1.535321712493896 5.428553581237793 1.161113739013672 5.839540958404541 C 1.811440467834473 6.600959300994873 3.118766069412231 7.187153339385986 3.999072313308716 7.187153339385986 L 4.191535949707031 7.187153339385986 L 5.270882606506348 5.972803115844727 L 5.275912284851074 5.967143058776855 L 5.281022548675537 5.961563110351563 L 5.427521705627441 5.801681518554688 C 5.884889602661133 5.10075569152832 5.8857741355896 4.880756378173828 5.887852668762207 4.370033264160156 C 5.888212203979492 4.279353141784668 5.888652324676514 4.184693336486816 5.890862464904785 4.08392333984375 C 5.907632350921631 3.320723533630371 5.713282585144043 2.649213314056396 5.407232284545898 2.41295337677002 L 5.328762531280518 2.352373123168945 L 5.263702392578125 2.277563095092773 C 4.034902572631836 0.864443302154541 3.553312301635742 0.5965533256530762 3.094482421875 0.5965533256530762 M 3.094482421875 -0.4034461975097656 C 4.036382675170898 -0.4034461975097656 4.768312454223633 0.1838831901550293 6.018312454223633 1.621383190155029 C 6.758542537689209 2.19282341003418 6.907122611999512 3.355143547058105 6.890622615814209 4.105893135070801 C 6.873372554779053 4.890763282775879 6.97457218170166 5.280163288116455 6.218752384185791 6.418393135070801 L 6.018312454223633 6.637143135070801 L 4.640622138977051 8.187152862548828 L 3.999072313308716 8.187152862548828 C 2.644102573394775 8.187152862548828 0.5829925537109375 7.195393562316895 -0.04150772094726563 5.802823066711426 C -0.1634273529052734 5.575223445892334 1.015622615814209 4.862003326416016 1.015622615814209 4.043393135070801 L 0.890622615814209 3.637143135070801 L 0.625002384185791 3.309023380279541 L -0.109377384185791 2.637143135070801 C 0.1770424842834473 1.117153167724609 1.504022598266602 -0.4034461975097656 3.094482421875 -0.4034461975097656 Z" stroke="none" fill="#fff"/>
    </g>
  </g>
</svg>
