<svg xmlns="http://www.w3.org/2000/svg" width="307.5" height="283" viewBox="0 0 307.5 283">
  <path id="gheIcon" d="M382.9,194.5V156.2a42.593,42.593,0,0,0-42.5-42.5H172.9a42.593,42.593,0,0,0-42.5,42.5v38.3a42.643,42.643,0,0,0-27.5,39.7V396.7h25V374.2H385.4v22.5h25V234.2A42.4,42.4,0,0,0,382.9,194.5Zm-210-55.8H340.4a17.584,17.584,0,0,1,17.5,17.5v35.6a42.51,42.51,0,0,0-40,42.4v45H195.4v-45a42.51,42.51,0,0,0-40-42.4V156.2A17.584,17.584,0,0,1,172.9,138.7Z" transform="translate(-102.9 -113.7)" fill="#3e515d"/>
</svg>
