<svg xmlns="http://www.w3.org/2000/svg" width="14.049" height="17.902" viewBox="0 0 14.049 17.902">
  <g id="iconPosition" transform="translate(-7 -2)">
    <path id="Path_16" data-name="Path 16" d="M14.024,2A6.981,6.981,0,0,0,7,8.917c0,3.58,5.752,10,6.409,10.717a.84.84,0,0,0,1.231,0c.657-.72,6.409-7.137,6.409-10.717A6.981,6.981,0,0,0,14.024,2Zm0,15.848c-1.921-2.23-5.372-6.693-5.372-8.931a5.372,5.372,0,0,1,10.743,0C19.4,11.155,15.946,15.618,14.024,17.848Z" transform="translate(0)" fill="#b7b7b7"/>
    <path id="Path_17" data-name="Path 17" d="M16.155,8A3.236,3.236,0,0,0,13,11.307a3.159,3.159,0,1,0,6.31,0A3.236,3.236,0,0,0,16.155,8Zm0,5.412a2.107,2.107,0,1,1,2.008-2.1A2.06,2.06,0,0,1,16.155,13.412Z" transform="translate(-1.966 -2.929)" fill="#b7b7b7"/>
  </g>
</svg>
