<svg xmlns="http://www.w3.org/2000/svg" width="25" height="25" viewBox="0 0 25 25">
  <g id="iconStarMid" transform="translate(0.5 0.5)">
    <g id="star">
      <rect id="Rectangle_28" data-name="Rectangle 28" width="24" height="24" transform="translate(24) rotate(90)" fill="none" stroke="#fff" stroke-width="1" opacity="0"/>
      <path id="Path_21" data-name="Path 21" d="M17.56,21a1,1,0,0,1-.46-.11L12,18.22,6.9,20.89a1,1,0,0,1-1.45-1.06l1-5.63-4.12-4a.985.985,0,0,1,.56-1.68l5.7-.83L11.1,2.56a1,1,0,0,1,1.8,0l2.54,5.12,5.7.83a.985.985,0,0,1,.56,1.68l-4.12,4,1,5.63A.99.99,0,0,1,17.56,21Z" fill="none" stroke="#fff" stroke-width="1"/>
    </g>
    <g id="Path_22" data-name="Path 22" transform="translate(1 1.733)" fill="#fff">
      <path d="M 5.056396007537842 18.54219436645508 L 5.056396007537842 15.93933773040771 L 5.398655891418457 12.66436958312988 L 5.422865867614746 12.4327392578125 L 5.261136054992676 12.26516914367676 L 1.312015891075134 8.173471450805664 L 1.312015891075134 7.544332027435303 L 4.508498668670654 6.829999923706055 L 7.420025825500488 6.225308895111084 L 7.641225814819336 6.17936897277832 L 7.752935886383057 5.983019351959229 L 8.492925643920898 4.682399272918701 L 8.500765800476074 4.668619155883789 L 8.507716178894043 4.654378890991211 L 10.49999618530273 0.570841372013092 L 10.49999618530273 16.50275230407715 L 5.056396007537842 18.54219436645508 Z" stroke="none"/>
      <path d="M 9.999996185302734 2.735986709594727 L 8.957085609436035 4.873619079589844 L 8.943185806274414 4.902109146118164 L 8.927515983581543 4.929658889770508 L 8.187525749206543 6.230278968811035 L 7.964085578918457 6.622988700866699 L 7.521705627441406 6.714869499206543 L 4.613648414611816 7.318839073181152 L 1.812015533447266 7.944931983947754 L 1.812015533447266 7.971545219421387 L 5.620895862579346 11.91793918609619 L 5.944365978240967 12.25307846069336 L 5.895946025848389 12.71633911132813 L 5.556396007537842 15.96537685394287 L 5.556396007537842 17.8209285736084 L 9.999996185302734 16.15613555908203 L 9.999996185302734 2.735986709594727 M 10.22216606140137 0 L 10.99999618530273 0 L 10.99999618530273 16.84936904907227 L 4.556396007537842 19.26345825195313 L 4.556396007537842 15.91329956054688 L 4.901365756988525 12.61239910125732 L 0.8120155334472656 8.375409126281738 L 0.8120155334472656 7.143738746643066 L 4.403075695037842 6.341229438781738 L 7.318356037139893 5.735758781433105 L 8.058345794677734 4.435138702392578 L 10.22216606140137 0 Z" stroke="none" fill="#fff"/>
    </g>
  </g>
</svg>
