<svg xmlns="http://www.w3.org/2000/svg" width="168" height="161.828" viewBox="0 0 168 161.828">
  <g id="iconSuccess" transform="translate(0 -3.086)">
    <path id="Path_235" data-name="Path 235" d="M85,31.163a56,56,0,1,0,56,56,56,56,0,0,0-56-56Zm0,108a52,52,0,1,1,52-52,52,52,0,0,1-52,52Z" fill="#a9ff44"/>
    <path id="Path_236" data-name="Path 236" d="M115.6,61.738,68.271,108.311,54.449,93.785a2,2,0,0,0-2.9,2.758l15.224,16a2,2,0,0,0,1.416.621h.033a2,2,0,0,0,1.4-.574l48.776-48a2,2,0,1,0-2.8-2.852Z" fill="#6b00b6"/>
    <path id="Path_237" data-name="Path 237" d="M150.721,146.914H106.262a64,64,0,1,0-44.524,0H17.279a2.017,2.017,0,1,0,0,4H150.721a2.017,2.017,0,1,0,0-4ZM24,86.913a60,60,0,1,1,60,60A60,60,0,0,1,24,86.913Zm64.5-69.25a3,3,0,1,0-3-3,3,3,0,0,0,3,3Zm0-4.5a1.5,1.5,0,1,1-1.5,1.5,1.5,1.5,0,0,1,1.5-1.5Zm69.8,54.75a2,2,0,1,0,2,2A2,2,0,0,0,158.3,67.913Zm0,3a1,1,0,1,1,1-1,1,1,0,0,1-1,1ZM130,3.58a2,2,0,1,0,2,2,2,2,0,0,0-2-2Zm0,3a1,1,0,1,1,1-1,1,1,0,0,1-1,1Zm31.333,8.667a2,2,0,1,0,2,2,2,2,0,0,0-2-2Zm0,3a1,1,0,1,1,1-1,1,1,0,0,1-1,1ZM30.3,30.58a2,2,0,1,0-2,2,2,2,0,0,0,2-2Zm-3,0a1,1,0,1,1,1,1,1,1,0,0,1-1-1Z" fill="#a9ff44"/>
    <path id="Path_238" data-name="Path 238" d="M10.888,67.925l1.487-1.956-.939-.532-.955,2.19H10.45l-.97-2.174L8.525,66,10,67.91v.031l-2.3-.3v1.064l2.316-.3v.031L8.525,70.35l.891.564,1.018-2.207h.031L11.4,70.9l.986-.563-1.5-1.878v-.032l2.362.282V67.643l-2.362.313Z" fill="#6b00b6"/>
    <path id="Path_239" data-name="Path 239" d="M12.162,6.238l-.856,1.1.513.325L12.4,6.391h.018l.541,1.262.568-.325-.865-1.081V6.229l1.36.162V5.778l-1.36.181V5.941l.856-1.127-.541-.306-.549,1.261h-.019l-.558-1.252-.55.315.847,1.1V5.95l-1.325-.172v.613l1.334-.171Z" fill="#6b00b6"/>
    <path id="Path_240" data-name="Path 240" d="M65.305,6.294V5.25l-2.317.307V5.526l1.458-1.918-.921-.522-.936,2.149h-.031L61.607,3.1l-.937.538,1.443,1.872v.031L59.856,5.25V6.294L62.128,6v.031L60.67,7.905l.875.553,1-2.164h.03l.921,2.148.967-.552L62.988,6.048V6.017Z" fill="#6b00b6"/>
    <path id="Path_241" data-name="Path 241" d="M138.858,35.839l1.258-1.655-.795-.45-.807,1.853h-.027l-.82-1.84-.809.463,1.245,1.616v.026l-1.946-.252v.9l1.959-.251v.027l-1.258,1.614.755.477.861-1.867h.026l.794,1.854.835-.477-1.271-1.588v-.027l2,.238v-.9l-2,.265Z" fill="#6b00b6"/>
    <circle id="Ellipse_12" data-name="Ellipse 12" cx="2" cy="2" r="2" transform="translate(0 146.914)" fill="#6b00b6"/>
    <path id="Path_242" data-name="Path 242" d="M11,146.914H8a2,2,0,0,0,0,4h3a2,2,0,0,0,0-4Zm149,0h-3a2,2,0,0,0,0,4h3a2,2,0,0,0,0-4Z" fill="#6b00b6"/>
    <path id="Path_244" data-name="Path 244" d="M2,0A2,2,0,1,1,0,2,2,2,0,0,1,2,0Z" transform="translate(164 146.914)" fill="#6b00b6"/>
    <path id="Path_243" data-name="Path 243" d="M118.154,154.914h-8.308a2.006,2.006,0,0,0,0,4h8.308a2.006,2.006,0,0,0,0-4Zm-60,0H49.846a2.006,2.006,0,0,0,0,4h8.308a2.006,2.006,0,0,0,0-4Zm45.846,0H64a2,2,0,0,0,0,4H79.94v2H72a2,2,0,0,0,0,4H97a2,2,0,0,0,0-4H88.06v-2H104a2,2,0,0,0,0-4Z" fill="#6b00b6"/>
    <path id="Path_245" data-name="Path 245" d="M138.858,35.839l1.258-1.655-.795-.45-.807,1.853h-.027l-.82-1.84-.809.463,1.245,1.616v.026l-1.946-.252v.9l1.959-.251v.027l-1.258,1.614.755.477.861-1.867h.026l.794,1.854.835-.477-1.271-1.588v-.027l2,.238v-.9l-2,.265Z" transform="translate(16 24)" fill="#6b00b6"/>
    <path id="Path_246" data-name="Path 246" d="M138.858,35.839l1.258-1.655-.795-.45-.807,1.853h-.027l-.82-1.84-.809.463,1.245,1.616v.026l-1.946-.252v.9l1.959-.251v.027l-1.258,1.614.755.477.861-1.867h.026l.794,1.854.835-.477-1.271-1.588v-.027l2,.238v-.9l-2,.265Z" transform="translate(17 -25)" fill="#6b00b6"/>
    <path id="Path_247" data-name="Path 247" d="M138.858,35.839l1.258-1.655-.795-.45-.807,1.853h-.027l-.82-1.84-.809.463,1.245,1.616v.026l-1.946-.252v.9l1.959-.251v.027l-1.258,1.614.755.477.861-1.867h.026l.794,1.854.835-.477-1.271-1.588v-.027l2,.238v-.9l-2,.265Z" transform="translate(-131 -5)" fill="#6b00b6"/>
    <path id="Path_248" data-name="Path 248" d="M138.858,35.839l1.258-1.655-.795-.45-.807,1.853h-.027l-.82-1.84-.809.463,1.245,1.616v.026l-1.946-.252v.9l1.959-.251v.027l-1.258,1.614.755.477.861-1.867h.026l.794,1.854.835-.477-1.271-1.588v-.027l2,.238v-.9l-2,.265Z" transform="translate(-29 -24)" fill="#6b00b6"/>
  </g>
</svg>
