<svg xmlns="http://www.w3.org/2000/svg" width="112" height="106" viewBox="0 0 112 106">
  <defs>
    <style>
      .cls-1, .cls-3, .cls-6 {
        fill: #fff;
      }

      .cls-2, .cls-4 {
        fill: #440074;
      }

      .cls-4 {
        stroke: #fff;
      }

      .cls-5, .cls-6 {
        stroke: none;
      }
    </style>
  </defs>
  <g id="LogoLight" transform="translate(-622 -567)">
    <g id="Path_4" data-name="Path 4" class="cls-1" transform="translate(622 567)">
      <path class="cls-5" d="M 83 105.5 L 29 105.5 C 25.15229988098145 105.5 21.41997146606445 104.7465286254883 17.90667152404785 103.2605285644531 C 14.51297187805176 101.8251113891602 11.46501445770264 99.77010345458984 8.847456932067871 97.15254211425781 C 6.229899883270264 94.53498840332031 4.174885749816895 91.48703002929688 2.739471435546875 88.09333038330078 C 1.253471374511719 84.58003234863281 0.5 80.84770202636719 0.5 77 L 0.5 29 C 0.5 25.15229988098145 1.253471374511719 21.41997146606445 2.739471435546875 17.90667152404785 C 4.174885749816895 14.51297187805176 6.229899883270264 11.46501445770264 8.847456932067871 8.847456932067871 C 11.46501445770264 6.229899883270264 14.51297187805176 4.174885749816895 17.90667152404785 2.739471435546875 C 21.41997146606445 1.253471374511719 25.15229988098145 0.5 29 0.5 L 83 0.5 C 86.84770202636719 0.5 90.58003234863281 1.253471374511719 94.09333038330078 2.739471435546875 C 97.48703002929688 4.174885749816895 100.5349884033203 6.229899883270264 103.1525421142578 8.847456932067871 C 105.7701034545898 11.46501445770264 107.8251113891602 14.51297187805176 109.2605285644531 17.90667152404785 C 110.7465286254883 21.41997146606445 111.5 25.15229988098145 111.5 29 L 111.5 77 C 111.5 80.84770202636719 110.7465286254883 84.58003234863281 109.2605285644531 88.09333038330078 C 107.8251113891602 91.48703002929688 105.7701034545898 94.53498840332031 103.1525421142578 97.15254211425781 C 100.5349884033203 99.77010345458984 97.48703002929688 101.8251113891602 94.09333038330078 103.2605285644531 C 90.58003234863281 104.7465286254883 86.84770202636719 105.5 83 105.5 Z"/>
      <path class="cls-6" d="M 29 1 C 25.21958160400391 1 21.55278778076172 1.740165710449219 18.10144805908203 3.199966430664063 C 14.76734161376953 4.61016845703125 11.77279663085938 6.629219055175781 9.201011657714844 9.201011657714844 C 6.629219055175781 11.77279663085938 4.61016845703125 14.76734161376953 3.199966430664063 18.10144805908203 C 1.740165710449219 21.55278778076172 1 25.21958160400391 1 29 L 1 77 C 1 80.78041076660156 1.740165710449219 84.44721984863281 3.199966430664063 87.89855194091797 C 4.61016845703125 91.23265838623047 6.629219055175781 94.22720336914063 9.201011657714844 96.79898071289063 C 11.77279663085938 99.37078857421875 14.76734161376953 101.3898315429688 18.10144805908203 102.8000335693359 C 21.55278778076172 104.2598342895508 25.21958160400391 105 29 105 L 83 105 C 86.78041076660156 105 90.44721984863281 104.2598342895508 93.89855194091797 102.8000335693359 C 97.23265838623047 101.3898315429688 100.2272033691406 99.37078857421875 102.7989807128906 96.79898071289063 C 105.3707885742188 94.22720336914063 107.3898315429688 91.23265838623047 108.8000335693359 87.89855194091797 C 110.2598342895508 84.44721984863281 111 80.78041076660156 111 77 L 111 29 C 111 25.21958160400391 110.2598342895508 21.55278778076172 108.8000335693359 18.10144805908203 C 107.3898315429688 14.76734161376953 105.3707885742188 11.77279663085938 102.7989807128906 9.201011657714844 C 100.2272033691406 6.629219055175781 97.23265838623047 4.61016845703125 93.89855194091797 3.199966430664063 C 90.44721984863281 1.740165710449219 86.78041076660156 1 83 1 L 29 1 M 29 0 L 83 0 C 99.01625823974609 0 112 12.98374176025391 112 29 L 112 77 C 112 93.01625823974609 99.01625823974609 106 83 106 L 29 106 C 12.98374176025391 106 0 93.01625823974609 0 77 L 0 29 C 0 12.98374176025391 12.98374176025391 0 29 0 Z"/>
    </g>
    <g id="logoLight-2" data-name="logoLight">
      <g id="Group_1" data-name="Group 1">
        <rect id="Rectangle_1" data-name="Rectangle 1" class="cls-2" width="28" height="75" rx="9" transform="translate(647 584)"/>
      </g>
      <g id="Group_5" data-name="Group 5">
        <g id="Group_4" data-name="Group 4" transform="matrix(-0.695, 0.719, -0.719, -0.695, 1581.894, 584.283)">
          <rect id="Rectangle_1-2" data-name="Rectangle 1" class="cls-2" width="25.778" height="52.411" rx="9" transform="translate(647 584)"/>
        </g>
      </g>
      <rect id="Rectangle_4" data-name="Rectangle 4" class="cls-3" width="13" height="1" transform="matrix(0.719, -0.695, 0.695, 0.719, 687.459, 606.087)"/>
      <rect id="Rectangle_5" data-name="Rectangle 5" class="cls-3" width="13" height="1" transform="translate(695.24 595.982) rotate(45)"/>
      <g id="Group_6" data-name="Group 6" transform="matrix(-0.105, 0.995, -0.995, -0.105, 1399.185, -17.898)">
        <g id="Group_4-2" data-name="Group 4" transform="matrix(-0.695, 0.719, -0.719, -0.695, 1585.407, 587.676)">
          <rect id="Rectangle_1-3" data-name="Rectangle 1" class="cls-2" width="25.778" height="40.498" rx="9" transform="translate(647 584)"/>
        </g>
        <rect id="Rectangle_3" data-name="Rectangle 3" class="cls-3" width="14" height="2" rx="1" transform="matrix(0.719, -0.695, 0.695, 0.719, 688.74, 639.782)"/>
        <rect id="Rectangle_6" data-name="Rectangle 6" class="cls-3" width="15" height="2" rx="1" transform="matrix(0.719, -0.695, 0.695, 0.719, 683.415, 634.927)"/>
        <rect id="Rectangle_7" data-name="Rectangle 7" class="cls-3" width="14" height="2" rx="1" transform="translate(718.874 627.102) rotate(43)"/>
        <rect id="Rectangle_8" data-name="Rectangle 8" class="cls-3" width="14" height="2" rx="1" transform="translate(723.219 620.612) rotate(43)"/>
      </g>
      <g id="Group_3" data-name="Group 3" transform="translate(647.16 588.664)">
        <path id="Path_1" data-name="Path 1" class="cls-4" d="M0,3.721,3.029,1.86,0,0Z" transform="matrix(0.017, 1, -1, 0.017, 16.072, 7.749)"/>
        <path id="Path_2" data-name="Path 2" class="cls-4" d="M20.127,4.173l-4.733-2.74a2.542,2.542,0,0,0-2.547,0L8.114,4.173A2.555,2.555,0,0,0,6.84,6.384v5.477a2.555,2.555,0,0,0,1.274,2.211l4.733,2.74a2.542,2.542,0,0,0,2.547,0l4.733-2.739A2.555,2.555,0,0,0,21.4,11.863V6.384a2.555,2.555,0,0,0-1.274-2.211Zm-1.6,6.237c-.062.862-.219,1.752-1.318,1.817a54.188,54.188,0,0,1-6.184,0c-1.1-.064-1.256-.955-1.318-1.817a17.271,17.271,0,0,1,0-2.574c.062-.862.219-1.752,1.318-1.817a54.188,54.188,0,0,1,6.184,0c1.1.064,1.256.955,1.318,1.817a17.279,17.279,0,0,1,0,2.574Z"/>
      </g>
    </g>
  </g>
</svg>
