<svg xmlns="http://www.w3.org/2000/svg" width="76" height="73" viewBox="0 0 76 73">
  <g id="Noavatar" transform="translate(-13 33)">
    <g id="_ÎÓÈ_1" data-name="—ÎÓÈ 1" transform="translate(20 -28)">
      <rect id="Rectangle_42" data-name="Rectangle 42" width="76" height="73" transform="translate(-7 -5)" fill="#485a69"/>
      <path id="Path_224" data-name="Path 224" d="M23.242,38.592l15.92.209V51.719L23.255,51.6l-.013-13.006Z" fill="#f9dca4" fill-rule="evenodd"/>
      <path id="Path_225" data-name="Path 225" d="M53.478,51.993A30.814,30.814,0,0,1,30.9,61.8a31.214,31.214,0,0,1-3.834-.237A30.7,30.7,0,0,1,15.9,57.919a31.033,31.033,0,0,1-7.857-6.225l1.284-3.1,13.925-6.212c0,4.535,1.84,6.152,7.97,6.244,7.57.113,7.94-1.606,7.94-6.28l12.79,6.281Z" fill="#d5e1ed" fill-rule="evenodd"/>
      <path id="Path_226" data-name="Path 226" d="M39.165,38.778v3.4c-2.75,4.914-14,5-15.923-3.59Z" fill-rule="evenodd" opacity="0.11"/>
      <path id="Path_227" data-name="Path 227" d="M31.129,8.432c21.281,0,12.987,35.266,0,35.266-12.267,0-21.281-35.266,0-35.266Z" fill="#ffe8be" fill-rule="evenodd"/>
      <path id="Path_228" data-name="Path 228" d="M18.365,24.045c-3.07,1.34-.46,7.687,1.472,7.658a31.973,31.973,0,0,1-1.472-7.658Z" fill="#f9dca4" fill-rule="evenodd"/>
      <path id="Path_229" data-name="Path 229" d="M44.14,24.045c3.07,1.339.46,7.687-1.471,7.658a31.992,31.992,0,0,0,1.471-7.658Z" fill="#f9dca4" fill-rule="evenodd"/>
      <path id="Path_230" data-name="Path 230" d="M43.409,29.584s1.066-8.716-2.015-11.752c-1.34,3.528-7.5,4.733-7.5,4.733a16.62,16.62,0,0,0,3.215-2.947c-1.652.715-6.876,2.858-11.61,1.161A23.715,23.715,0,0,0,29.114,18.1s-4.287,2.322-8.44,1.742C17.683,22.074,19.014,29,19.014,29,15,18.417,18.7,6.3,31.39,6.226c12.358-.069,16.17,11.847,12.018,23.358Z" fill="#ecbe6a" fill-rule="evenodd"/>
      <path id="Path_231" data-name="Path 231" d="M23.255,42.179a17.39,17.39,0,0,0,7.958,6.446l-5.182,5.349L19.44,43.87Z" fill="#fff" fill-rule="evenodd"/>
      <path id="Path_232" data-name="Path 232" d="M39.16,42.179A17.391,17.391,0,0,1,31.2,48.625l5.181,5.349,6.592-10.1Z" fill="#fff" fill-rule="evenodd"/>
      <path id="Path_233" data-name="Path 233" d="M33.366,61.7q-1.239.1-2.5.1-.954,0-1.9-.056L30,52.985h2.41Z" fill="#3dbc93" fill-rule="evenodd"/>
      <path id="Path_234" data-name="Path 234" d="M28.472,51.456l2.737-2.817,2.736,2.817-2.736,2.817Z" fill="#3dbc93" fill-rule="evenodd"/>
    </g>
  </g>
</svg>
