<svg xmlns="http://www.w3.org/2000/svg" xmlns:xlink="http://www.w3.org/1999/xlink" width="662.23" height="512.434" viewBox="0 0 662.23 512.434">
  <defs>
    <style>
      .cls-1, .cls-75 {
        fill: none;
      }

      .cls-2 {
        isolation: isolate;
        clip-path: url(#clip-path);
      }

      .cls-3 {
        fill: url(#linear-gradient);
      }

      .cls-4 {
        fill: url(#radial-gradient);
      }

      .cls-5 {
        fill: url(#linear-gradient-2);
      }

      .cls-6 {
        fill: url(#linear-gradient-3);
      }

      .cls-7 {
        fill: url(#linear-gradient-4);
      }

      .cls-8 {
        fill: url(#linear-gradient-5);
      }

      .cls-9 {
        fill: url(#linear-gradient-6);
      }

      .cls-10 {
        fill: url(#linear-gradient-7);
      }

      .cls-11 {
        fill: url(#linear-gradient-12);
      }

      .cls-12 {
        fill: url(#linear-gradient-17);
      }

      .cls-13 {
        fill: url(#linear-gradient-22);
      }

      .cls-14 {
        fill: url(#linear-gradient-23);
      }

      .cls-15, .cls-87 {
        opacity: 0.3;
      }

      .cls-16 {
        font-size: 11px;
      }

      .cls-16, .cls-18, .cls-19 {
        font-family: SegoeUI-BoldItalic, Segoe UI;
        font-weight: 700;
        font-style: italic;
        letter-spacing: 0.04em;
      }

      .cls-17, .cls-42, .cls-43 {
        fill: #fff;
      }

      .cls-17 {
        opacity: 0.56;
      }

      .cls-18 {
        font-size: 4px;
      }

      .cls-19 {
        font-size: 3px;
      }

      .cls-20 {
        opacity: 0.7;
      }

      .cls-21 {
        fill: #2b73b5;
      }

      .cls-22 {
        fill: #56abdd;
      }

      .cls-23 {
        fill: #951aac;
      }

      .cls-24 {
        fill: #741aac;
      }

      .cls-25 {
        fill: #a91aac;
      }

      .cls-26 {
        fill: #00ddd2;
      }

      .cls-27 {
        fill: #00ccbd;
      }

      .cls-28, .cls-40 {
        opacity: 0.6;
      }

      .cls-29 {
        fill: #701aac;
      }

      .cls-30 {
        fill: url(#linear-gradient-24);
      }

      .cls-31 {
        fill: #00ffec;
      }

      .cls-32 {
        fill: #009bdd;
      }

      .cls-33 {
        fill: url(#linear-gradient-25);
      }

      .cls-34 {
        opacity: 0.8;
      }

      .cls-35 {
        fill: url(#linear-gradient-27);
      }

      .cls-36 {
        fill: url(#linear-gradient-28);
      }

      .cls-37 {
        fill: #b3efff;
      }

      .cls-38 {
        fill: url(#linear-gradient-29);
      }

      .cls-39 {
        fill: url(#linear-gradient-30);
      }

      .cls-40 {
        fill: url(#linear-gradient-31);
      }

      .cls-41 {
        fill: #125cae;
      }

      .cls-43 {
        opacity: 0.4;
      }

      .cls-44, .cls-46 {
        opacity: 0.73;
      }

      .cls-45, .cls-46 {
        fill: url(#linear-gradient-32);
      }

      .cls-47 {
        opacity: 0.5;
      }

      .cls-48 {
        fill: url(#linear-gradient-34);
      }

      .cls-49 {
        fill: url(#radial-gradient-2);
      }

      .cls-50 {
        fill: url(#radial-gradient-3);
      }

      .cls-51 {
        fill: url(#radial-gradient-4);
      }

      .cls-52 {
        fill: url(#radial-gradient-5);
      }

      .cls-53 {
        fill: url(#radial-gradient-6);
      }

      .cls-54 {
        fill: url(#radial-gradient-7);
      }

      .cls-55 {
        fill: url(#radial-gradient-8);
      }

      .cls-56 {
        fill: url(#radial-gradient-10);
      }

      .cls-57 {
        fill: url(#radial-gradient-11);
      }

      .cls-58 {
        fill: url(#radial-gradient-12);
      }

      .cls-59 {
        fill: url(#radial-gradient-14);
      }

      .cls-60 {
        fill: url(#radial-gradient-15);
      }

      .cls-61 {
        fill: url(#radial-gradient-16);
      }

      .cls-62 {
        fill: url(#radial-gradient-18);
      }

      .cls-63 {
        fill: url(#radial-gradient-19);
      }

      .cls-64 {
        fill: url(#radial-gradient-20);
      }

      .cls-65 {
        fill: url(#linear-gradient-35);
      }

      .cls-66 {
        fill: url(#radial-gradient-21);
      }

      .cls-67 {
        fill: url(#radial-gradient-22);
      }

      .cls-68 {
        fill: url(#radial-gradient-25);
      }

      .cls-69 {
        fill: url(#radial-gradient-27);
      }

      .cls-70 {
        fill: url(#radial-gradient-30);
      }

      .cls-71 {
        fill: url(#radial-gradient-32);
      }

      .cls-72 {
        fill: url(#radial-gradient-33);
      }

      .cls-73 {
        fill: url(#radial-gradient-37);
      }

      .cls-74 {
        fill: url(#radial-gradient-38);
      }

      .cls-75 {
        stroke: #fff;
        stroke-width: 2.127px;
        fill-rule: evenodd;
      }

      .cls-76 {
        fill: #ff277f;
      }

      .cls-77 {
        fill: #c71aac;
      }

      .cls-78 {
        fill: url(#linear-gradient-36);
      }

      .cls-79 {
        fill: url(#linear-gradient-37);
      }

      .cls-80 {
        fill: url(#linear-gradient-38);
      }

      .cls-81 {
        fill: url(#linear-gradient-39);
      }

      .cls-82 {
        fill: url(#linear-gradient-40);
      }

      .cls-83 {
        fill: url(#linear-gradient-41);
      }

      .cls-84 {
        fill: url(#linear-gradient-42);
      }

      .cls-85 {
        fill: url(#linear-gradient-43);
      }

      .cls-86 {
        fill: url(#linear-gradient-44);
      }

      .cls-87 {
        fill: url(#linear-gradient-45);
      }

      .cls-88 {
        fill: #d9007f;
      }

      .cls-89 {
        fill: #ac006b;
      }

      .cls-90 {
        fill: #ff00a6;
      }
    </style>
    <clipPath id="clip-path">
      <rect class="cls-1" x="-22" y="43" width="662.23" height="512.434"/>
    </clipPath>
    <linearGradient id="linear-gradient" x1="0.719" y1="0.238" x2="0.261" y2="0.718" gradientUnits="objectBoundingBox">
      <stop offset="0" stop-color="#270036"/>
      <stop offset="0.594" stop-color="#4f008b"/>
      <stop offset="1" stop-color="#4c24b1"/>
    </linearGradient>
    <radialGradient id="radial-gradient" cx="0.5" cy="0.5" r="0.5" gradientTransform="matrix(-1, 0, 0, 1, 1, 0)" gradientUnits="objectBoundingBox">
      <stop offset="0" stop-color="#3e82bf"/>
      <stop offset="1" stop-color="#3e82bf" stop-opacity="0"/>
    </radialGradient>
    <linearGradient id="linear-gradient-2" x1="0.719" y1="0.212" x2="0.261" y2="0.74" xlink:href="#linear-gradient"/>
    <linearGradient id="linear-gradient-3" x1="0.719" y1="0.333" x2="0.261" y2="0.64" xlink:href="#linear-gradient"/>
    <linearGradient id="linear-gradient-4" x1="1" y1="0.5" x2="0.013" y2="0.5" gradientUnits="objectBoundingBox">
      <stop offset="0" stop-color="#b208ab"/>
      <stop offset="1" stop-color="#4e0d98"/>
    </linearGradient>
    <linearGradient id="linear-gradient-5" x1="0.719" y1="0.104" x2="0.261" y2="0.83" xlink:href="#linear-gradient"/>
    <linearGradient id="linear-gradient-6" x1="0.719" y1="0.412" x2="0.261" y2="0.573" xlink:href="#linear-gradient"/>
    <linearGradient id="linear-gradient-7" x1="0.997" y1="0.5" x2="0.006" y2="0.5" gradientUnits="objectBoundingBox">
      <stop offset="0" stop-color="#3f499c"/>
      <stop offset="1" stop-color="#c619bb"/>
    </linearGradient>
    <linearGradient id="linear-gradient-12" x1="1" y1="0.5" x2="0.006" y2="0.5" gradientUnits="objectBoundingBox">
      <stop offset="0" stop-color="#4d1aa6"/>
      <stop offset="1" stop-color="#e42d97"/>
    </linearGradient>
    <linearGradient id="linear-gradient-17" x1="0.986" y1="0.5" x2="0.006" y2="0.5" gradientUnits="objectBoundingBox">
      <stop offset="0" stop-color="#b32aff"/>
      <stop offset="1" stop-color="#4c24b1"/>
    </linearGradient>
    <linearGradient id="linear-gradient-22" x1="1" y1="0.5" x2="0" y2="0.5" gradientUnits="objectBoundingBox">
      <stop offset="0" stop-color="#a1baff"/>
      <stop offset="0.433" stop-color="#fff"/>
    </linearGradient>
    <linearGradient id="linear-gradient-23" x1="1" y1="0.5" x2="0" y2="0.5" gradientUnits="objectBoundingBox">
      <stop offset="0" stop-color="#3133ab"/>
      <stop offset="0.183" stop-color="#2e38b0"/>
      <stop offset="0.407" stop-color="#2647bd"/>
      <stop offset="0.653" stop-color="#1960d4"/>
      <stop offset="0.914" stop-color="#0783f3"/>
      <stop offset="1" stop-color="#0090ff"/>
    </linearGradient>
    <linearGradient id="linear-gradient-24" x1="0.5" y1="0.022" x2="0.5" y2="1.225" gradientUnits="objectBoundingBox">
      <stop offset="0" stop-color="#311341"/>
      <stop offset="0.23" stop-color="#3113c2"/>
      <stop offset="0.348" stop-color="#2f18c5"/>
      <stop offset="0.493" stop-color="#2927cc"/>
      <stop offset="0.652" stop-color="#1f40d8"/>
      <stop offset="0.822" stop-color="#1263e9"/>
      <stop offset="0.998" stop-color="#008fff"/>
      <stop offset="1" stop-color="#0090ff"/>
    </linearGradient>
    <linearGradient id="linear-gradient-25" x1="1" y1="0.5" x2="0" y2="0.5" gradientUnits="objectBoundingBox">
      <stop offset="0" stop-color="#7633ff"/>
      <stop offset="0.159" stop-color="#7137ff"/>
      <stop offset="0.354" stop-color="#6243ff"/>
      <stop offset="0.568" stop-color="#4957ff"/>
      <stop offset="0.794" stop-color="#2672ff"/>
      <stop offset="1" stop-color="#0090ff"/>
    </linearGradient>
    <linearGradient id="linear-gradient-27" x1="0.5" y1="0.052" x2="0.5" y2="0.922" xlink:href="#linear-gradient-22"/>
    <linearGradient id="linear-gradient-28" x1="0.5" y1="0.002" x2="0.499" y2="1.028" xlink:href="#linear-gradient-22"/>
    <linearGradient id="linear-gradient-29" x1="0.406" y1="0.031" x2="0.603" y2="1.011" gradientUnits="objectBoundingBox">
      <stop offset="0" stop-color="#88cfda"/>
      <stop offset="0.008" stop-color="#89cfd9"/>
      <stop offset="0.478" stop-color="#c8d9bb"/>
      <stop offset="0.822" stop-color="#f0dfa7"/>
      <stop offset="1" stop-color="#ffe1a0"/>
    </linearGradient>
    <linearGradient id="linear-gradient-30" y1="0.5" x2="0" y2="0.5" xlink:href="#linear-gradient-25"/>
    <linearGradient id="linear-gradient-31" y1="0.5" x2="0" y2="0.5" xlink:href="#linear-gradient-25"/>
    <linearGradient id="linear-gradient-32" x1="0.5" y1="0.983" x2="0.5" y2="0.021" gradientUnits="objectBoundingBox">
      <stop offset="0" stop-color="#9311ff"/>
      <stop offset="1" stop-color="#330050" stop-opacity="0"/>
    </linearGradient>
    <linearGradient id="linear-gradient-34" x1="0.5" y1="0.501" x2="0.501" y2="0.501" gradientUnits="objectBoundingBox">
      <stop offset="0" stop-color="#fff"/>
      <stop offset="0.255" stop-color="#fffffd"/>
      <stop offset="0.393" stop-color="#fffdf5"/>
      <stop offset="0.502" stop-color="#fffbe7"/>
      <stop offset="0.596" stop-color="#fff7d4"/>
      <stop offset="0.681" stop-color="#fff2bb"/>
      <stop offset="0.76" stop-color="#ffec9c"/>
      <stop offset="0.833" stop-color="#ffe577"/>
      <stop offset="0.901" stop-color="#ffdd4c"/>
      <stop offset="0.965" stop-color="#ffd51e"/>
      <stop offset="1" stop-color="#ffcf00"/>
    </linearGradient>
    <radialGradient id="radial-gradient-2" cx="0.505" cy="0.571" r="0.43" gradientTransform="matrix(0.062, 0.987, 0.998, -0.061, -0.097, 0.108)" gradientUnits="objectBoundingBox">
      <stop offset="0" stop-color="#ff0091"/>
      <stop offset="0.144" stop-color="#ff17a8"/>
      <stop offset="0.24" stop-color="#b200ff"/>
      <stop offset="1" stop-color="#ff09a0" stop-opacity="0"/>
    </radialGradient>
    <radialGradient id="radial-gradient-3" cx="0.505" cy="0.571" r="0.43" xlink:href="#radial-gradient-2"/>
    <radialGradient id="radial-gradient-4" cx="0.505" cy="0.571" r="0.429" gradientTransform="matrix(0.062, 0.989, 0.998, -0.062, -0.097, 0.108)" xlink:href="#radial-gradient-2"/>
    <radialGradient id="radial-gradient-5" cx="0.505" cy="0.571" r="0.43" xlink:href="#radial-gradient-2"/>
    <radialGradient id="radial-gradient-6" cx="0.501" cy="0.5" r="0.505" gradientTransform="matrix(0.062, 0.989, 0.998, -0.061, -0.029, 0.035)" gradientUnits="objectBoundingBox">
      <stop offset="0" stop-color="#d6d5d5"/>
      <stop offset="0.043" stop-color="#b7b5b5"/>
      <stop offset="0.124" stop-color="#817e7e"/>
      <stop offset="0.2" stop-color="#575253"/>
      <stop offset="0.267" stop-color="#383334"/>
      <stop offset="0.324" stop-color="#262021"/>
      <stop offset="0.364" stop-color="#1f191a"/>
      <stop offset="0.994"/>
    </radialGradient>
    <radialGradient id="radial-gradient-7" cx="0.505" cy="0.571" r="0.429" gradientTransform="matrix(0.062, 0.989, 0.998, -0.062, -0.097, 0.108)" xlink:href="#radial-gradient-2"/>
    <radialGradient id="radial-gradient-8" cx="0.505" cy="0.571" r="0.43" xlink:href="#radial-gradient-2"/>
    <radialGradient id="radial-gradient-10" cx="0.505" cy="0.571" r="0.43" xlink:href="#radial-gradient-2"/>
    <radialGradient id="radial-gradient-11" cx="0.505" cy="0.571" r="0.43" xlink:href="#radial-gradient-2"/>
    <radialGradient id="radial-gradient-12" cx="0.505" cy="0.571" r="0.43" xlink:href="#radial-gradient-2"/>
    <radialGradient id="radial-gradient-14" cx="0.505" cy="0.571" r="0.39" gradientTransform="matrix(0.062, 0.987, 0.998, -0.061, -0.097, 0.108)" gradientUnits="objectBoundingBox">
      <stop offset="0" stop-color="#ff0091"/>
      <stop offset="0.144" stop-color="#ff17a8"/>
      <stop offset="0.291" stop-color="#b200ff"/>
      <stop offset="1" stop-color="#fff" stop-opacity="0"/>
    </radialGradient>
    <radialGradient id="radial-gradient-15" cx="0.505" cy="0.571" r="0.43" gradientTransform="matrix(0.062, 0.988, 0.998, -0.061, -0.097, 0.108)" xlink:href="#radial-gradient-2"/>
    <radialGradient id="radial-gradient-16" cx="0.505" cy="0.571" r="0.43" xlink:href="#radial-gradient-2"/>
    <radialGradient id="radial-gradient-18" cx="0.505" cy="0.571" r="0.43" gradientTransform="matrix(0.062, 0.988, 0.998, -0.061, -0.097, 0.108)" xlink:href="#radial-gradient-2"/>
    <radialGradient id="radial-gradient-19" cx="0.505" cy="0.571" r="0.43" gradientTransform="matrix(0.062, 0.986, 0.998, -0.061, -0.097, 0.109)" xlink:href="#radial-gradient-2"/>
    <radialGradient id="radial-gradient-20" cx="0.505" cy="0.571" r="0.429" gradientTransform="matrix(0.061, 0.99, 0.998, -0.062, -0.097, 0.107)" xlink:href="#radial-gradient-2"/>
    <linearGradient id="linear-gradient-35" x1="0.5" y1="0.497" x2="0.501" y2="0.497" xlink:href="#linear-gradient-34"/>
    <radialGradient id="radial-gradient-21" cx="0.505" cy="0.571" r="0.43" gradientTransform="matrix(0.062, 0.988, 0.998, -0.061, -0.097, 0.108)" xlink:href="#radial-gradient-2"/>
    <radialGradient id="radial-gradient-22" cx="0.505" cy="0.571" r="0.43" xlink:href="#radial-gradient-2"/>
    <radialGradient id="radial-gradient-25" cx="0.505" cy="0.571" r="0.429" gradientTransform="matrix(0.062, 0.989, 0.998, -0.061, -0.097, 0.108)" xlink:href="#radial-gradient-2"/>
    <radialGradient id="radial-gradient-27" cx="0.505" cy="0.571" r="0.43" gradientTransform="matrix(0.062, 0.986, 0.998, -0.061, -0.097, 0.109)" xlink:href="#radial-gradient-2"/>
    <radialGradient id="radial-gradient-30" cx="0.505" cy="0.571" r="0.429" gradientTransform="matrix(0.062, 0.989, 0.998, -0.062, -0.097, 0.108)" xlink:href="#radial-gradient-2"/>
    <radialGradient id="radial-gradient-32" cx="0.505" cy="0.571" r="0.43" xlink:href="#radial-gradient-2"/>
    <radialGradient id="radial-gradient-33" cx="0.505" cy="0.571" r="0.43" xlink:href="#radial-gradient-2"/>
    <radialGradient id="radial-gradient-37" cx="0.505" cy="0.571" r="0.43" gradientTransform="matrix(0.062, 0.988, 0.998, -0.061, -0.097, 0.108)" xlink:href="#radial-gradient-2"/>
    <radialGradient id="radial-gradient-38" cx="0.505" cy="0.571" r="0.431" gradientTransform="matrix(0.062, 0.986, 0.998, -0.061, -0.097, 0.109)" xlink:href="#radial-gradient-2"/>
    <linearGradient id="linear-gradient-36" y1="0.5" x2="1" y2="0.5" gradientUnits="objectBoundingBox">
      <stop offset="0" stop-color="#fff"/>
      <stop offset="0.123" stop-color="#fbfdff"/>
      <stop offset="0.248" stop-color="#eff5ff"/>
      <stop offset="0.374" stop-color="#dae9ff"/>
      <stop offset="0.501" stop-color="#bdd9ff"/>
      <stop offset="0.629" stop-color="#98c3ff"/>
      <stop offset="0.758" stop-color="#6ba9ff"/>
      <stop offset="0.885" stop-color="#378aff"/>
      <stop offset="1" stop-color="#006aff"/>
    </linearGradient>
    <linearGradient id="linear-gradient-37" x1="0" y1="0.5" x2="1" y2="0.5" xlink:href="#linear-gradient-36"/>
    <linearGradient id="linear-gradient-38" x1="0" y1="0.5" x2="1" y2="0.5" xlink:href="#linear-gradient-36"/>
    <linearGradient id="linear-gradient-39" y1="0.5" x2="1" y2="0.5" gradientUnits="objectBoundingBox">
      <stop offset="0" stop-color="#fff"/>
      <stop offset="0.262" stop-color="#fdfeff"/>
      <stop offset="0.4" stop-color="#f5f9ff"/>
      <stop offset="0.508" stop-color="#e7f1ff"/>
      <stop offset="0.602" stop-color="#d4e6ff"/>
      <stop offset="0.685" stop-color="#bbd8ff"/>
      <stop offset="0.762" stop-color="#9dc6ff"/>
      <stop offset="0.834" stop-color="#78b0ff"/>
      <stop offset="0.901" stop-color="#4e98ff"/>
      <stop offset="0.963" stop-color="#207dff"/>
      <stop offset="1" stop-color="#006aff"/>
    </linearGradient>
    <linearGradient id="linear-gradient-40" y1="0.5" x2="1" y2="0.5" gradientUnits="objectBoundingBox">
      <stop offset="0" stop-color="#311842"/>
      <stop offset="0.461" stop-color="#190c4b"/>
      <stop offset="1" stop-color="#000054"/>
    </linearGradient>
    <linearGradient id="linear-gradient-41" y1="0.5" x2="1" y2="0.5" gradientUnits="objectBoundingBox">
      <stop offset="0" stop-color="#f000b5"/>
      <stop offset="0.18" stop-color="#ef04b8"/>
      <stop offset="0.365" stop-color="#ea10bf"/>
      <stop offset="0.551" stop-color="#e325cc"/>
      <stop offset="0.738" stop-color="#d841de"/>
      <stop offset="0.924" stop-color="#cb66f4"/>
      <stop offset="1" stop-color="#c577ff"/>
    </linearGradient>
    <linearGradient id="linear-gradient-42" x1="0.448" y1="-0.173" x2="0.51" y2="1.015" xlink:href="#linear-gradient-39"/>
    <linearGradient id="linear-gradient-43" x1="0" y1="0.5" x2="1" y2="0.5" xlink:href="#linear-gradient-36"/>
    <linearGradient id="linear-gradient-44" x1="0" y1="0.5" x2="1" y2="0.5" xlink:href="#linear-gradient-40"/>
    <linearGradient id="linear-gradient-45" y1="0.5" x2="1" y2="0.5" gradientUnits="objectBoundingBox">
      <stop offset="0" stop-color="#311842"/>
      <stop offset="0.494" stop-color="#170ba7"/>
      <stop offset="0.838" stop-color="#0603e6"/>
      <stop offset="1" stop-color="blue"/>
    </linearGradient>
  </defs>
  <g id="signInBanner" class="cls-2" transform="translate(22 -43)">
    <g id="Development" transform="translate(0 67.501)">
      <path id="Path" class="cls-3" d="M51.568,296.94C179.211,413,87.412,503.11,391.278,479.476,533.537,468.4,604,355.37,620.31,252.094,640.538,124.055,563.141,33.16,350.066,33.16c-96.118,0-182.835-30.315-243.378,10.5C22.3,100.569-11.23,239.845,51.568,296.94Z" transform="translate(-19.072 -22.331)"/>
      <rect id="XMLID_126_" class="cls-4" width="328.111" height="342.973" transform="translate(171.619 89.55)"/>
      <g id="XMLID_995_" transform="translate(114.95 226.767)">
        <path id="XMLID_996_" class="cls-5" d="M350.578,59.979l39.33,23.958-.572,1.029-39.33-23.958a1.987,1.987,0,0,1-.04-3.328l4.8-3.112a.753.753,0,0,0,.341-.656.739.739,0,0,0-.365-.631L340,44.61a5.53,5.53,0,0,1-1.381.183c-1.739,0-3.144-.747-3.144-1.676s1.405-1.676,3.144-1.676,3.144.747,3.144,1.676a1.2,1.2,0,0,1-.476.88l14.028,8.241a1.988,1.988,0,0,1,.064,3.344l-4.8,3.112a.772.772,0,0,0,.008,1.286Z" transform="translate(-278.73 -7.54)"/>
        <path id="XMLID_1136_" class="cls-6" d="M344.334,62.513c-1.731,0-3.144-.747-3.144-1.676s1.405-1.676,3.144-1.676,3.144.747,3.144,1.676a1.228,1.228,0,0,1-.508.913L395.239,91.1l-.572,1.029L345.684,62.347A5.745,5.745,0,0,1,344.334,62.513Z" transform="translate(-288.602 -10.555)"/>
        <path id="XMLID_1137_" class="cls-7" d="M301.72,3.179l86.575,52.248-.572,1.029L300.433,3.777a5.339,5.339,0,0,1-1.35.166c-1.731,0-3.144-.747-3.144-1.676S297.345.59,299.084.59s3.144.747,3.144,1.676A1.188,1.188,0,0,1,301.72,3.179Z" transform="translate(-245.734 -0.59)"/>
        <path id="XMLID_1138_" class="cls-8" d="M281.024,22.693l34.789,21.56-.58,1.021-34.789-21.56a3.063,3.063,0,0,1,.032-5.162l4.684-2.822a1.776,1.776,0,0,0,.857-1.527,1.8,1.8,0,0,0-.81-1.552l-10.464-6.83a5.584,5.584,0,0,1-1.27.141c-1.739,0-3.144-.747-3.144-1.676s1.405-1.676,3.144-1.676,3.144.747,3.144,1.676a1.266,1.266,0,0,1-.58.963l9.773,6.382a3.066,3.066,0,0,1-.087,5.129l-4.684,2.822a1.8,1.8,0,0,0-.857,1.544A1.833,1.833,0,0,0,281.024,22.693Z" transform="translate(-152.92 -0.934)"/>
        <path id="XMLID_1139_" class="cls-9" d="M452.429,104.63,395.951,70.547a4.849,4.849,0,0,0-5.406.257l-5.168,3.817a5.91,5.91,0,0,1-6.835.191l-7.931-5.228a5.72,5.72,0,0,1-1.1.108c-1.739,0-3.144-.747-3.144-1.676s1.405-1.676,3.144-1.676,3.144.747,3.144,1.676a1.335,1.335,0,0,1-.7,1.046l7.193,4.747a4.824,4.824,0,0,0,5.573-.158l5.168-3.817a5.973,5.973,0,0,1,6.637-.324l56.478,34.082Z" transform="translate(-366.362 -11.777)"/>
        <path id="XMLID_1140_" class="cls-10" d="M111.7,60.091a.767.767,0,0,0,.016-1.286l-4.8-3.112a1.958,1.958,0,0,1-.881-1.685,1.935,1.935,0,0,1,.945-1.651l14.028-8.241a1.175,1.175,0,0,1-.476-.88c0-.921,1.405-1.676,3.144-1.676s3.144.747,3.144,1.676-1.405,1.676-3.144,1.676a5.54,5.54,0,0,1-1.381-.174L107.542,53.4a.762.762,0,0,0-.024,1.286l4.8,3.112a1.987,1.987,0,0,1-.04,3.328L72.952,85.086l-.572-1.029Z" transform="translate(193.227 -7.561)"/>
        <path id="XMLID_1141_" class="cls-10" d="M114.913,60.946c0-.929,1.405-1.676,3.144-1.676s3.144.747,3.144,1.676-1.405,1.676-3.144,1.676a5.624,5.624,0,0,1-1.342-.166L67.732,92.24l-.572-1.029,48.261-29.344A1.243,1.243,0,0,1,114.913,60.946Z" transform="translate(202.988 -10.574)"/>
        <path id="XMLID_1142_" class="cls-10" d="M84.414,69.8a5.72,5.72,0,0,1-1.1-.108l-7.931,5.228a5.922,5.922,0,0,1-6.843-.191l-5.168-3.817a4.849,4.849,0,0,0-5.406-.257L1.492,104.738.92,103.709,57.4,69.627a5.958,5.958,0,0,1,6.637.315L69.2,73.759a4.823,4.823,0,0,0,5.573.149l7.193-4.747a1.335,1.335,0,0,1-.7-1.046c0-.921,1.405-1.676,3.144-1.676s3.144.747,3.144,1.676S86.145,69.8,84.414,69.8Z" transform="translate(289.219 -11.794)"/>
        <path id="XMLID_1143_" class="cls-10" d="M153.361,4.064a5.692,5.692,0,0,1-1.35-.166L64.722,56.578l-.572-1.029L150.725,3.3a1.189,1.189,0,0,1-.5-.9c0-.921,1.405-1.676,3.144-1.676s3.144.747,3.144,1.676S155.1,4.064,153.361,4.064Z" transform="translate(170.066 -0.612)"/>
        <path id="XMLID_1144_" class="cls-10" d="M184.43,21.254a1.787,1.787,0,0,0-.857-1.544l-4.684-2.822a3.061,3.061,0,0,1-.079-5.129l9.773-6.382a1.243,1.243,0,0,1-.58-.963c0-.929,1.405-1.676,3.144-1.676s3.144.747,3.144,1.676-1.405,1.676-3.144,1.676a5.584,5.584,0,0,1-1.27-.141l-10.464,6.83a1.838,1.838,0,0,0,.048,3.079l4.684,2.822a3.059,3.059,0,0,1,.024,5.162L149.38,45.411l-.58-1.029,34.789-21.568A1.821,1.821,0,0,0,184.43,21.254Z" transform="translate(65.085 -0.956)"/>
        <path id="XMLID_1145_" class="cls-11" d="M111.72,190.179l-39.33-23.95.572-1.029,39.33,23.958a1.987,1.987,0,0,1,.04,3.328l-4.8,3.112a.749.749,0,0,0-.341.647.736.736,0,0,0,.365.639l14.751,8.664a5.53,5.53,0,0,1,1.381-.183c1.731,0,3.144.747,3.144,1.676s-1.405,1.676-3.144,1.676-3.144-.747-3.144-1.676a1.2,1.2,0,0,1,.476-.88l-14.028-8.241a1.988,1.988,0,0,1-.064-3.344l4.8-3.112a.739.739,0,0,0,.341-.647A.706.706,0,0,0,111.72,190.179Z" transform="translate(193.209 -28.597)"/>
        <path id="XMLID_1146_" class="cls-11" d="M118.057,189.8c1.739,0,3.144.747,3.144,1.676s-1.405,1.676-3.144,1.676-3.144-.747-3.144-1.676a1.214,1.214,0,0,1,.508-.913L67.16,161.209l.572-1.029,48.976,29.784A5.744,5.744,0,0,1,118.057,189.8Z" transform="translate(202.988 -27.742)"/>
        <path id="XMLID_1147_" class="cls-11" d="M150.725,244.437,64.15,192.189l.572-1.029,87.289,52.68a5.358,5.358,0,0,1,1.358-.166c1.739,0,3.144.747,3.144,1.676s-1.405,1.676-3.144,1.676-3.144-.747-3.144-1.676A1.191,1.191,0,0,1,150.725,244.437Z" transform="translate(170.066 -33.013)"/>
        <path id="XMLID_1148_" class="cls-11" d="M183.589,227.629,148.8,206.061l.58-1.021,34.789,21.56a3.059,3.059,0,0,1-.024,5.162l-4.684,2.822a1.838,1.838,0,0,0-.048,3.079l10.464,6.821a5.584,5.584,0,0,1,1.27-.141c1.739,0,3.144.747,3.144,1.676s-1.405,1.676-3.144,1.676S188,246.948,188,246.019a1.267,1.267,0,0,1,.58-.971l-9.773-6.382a3.061,3.061,0,0,1,.079-5.129l4.684-2.822a1.827,1.827,0,0,0,.016-3.087Z" transform="translate(65.085 -35.375)"/>
        <path id="XMLID_1149_" class="cls-11" d="M1.474,146.59l56.478,34.082a4.849,4.849,0,0,0,5.406-.257l5.168-3.817a5.936,5.936,0,0,1,6.843-.191l7.939,5.228a5.72,5.72,0,0,1,1.1-.108c1.739,0,3.144.747,3.144,1.676s-1.405,1.676-3.144,1.676-3.144-.747-3.144-1.676a1.311,1.311,0,0,1,.7-1.037l-7.193-4.747a4.823,4.823,0,0,0-5.573.158l-5.168,3.817a5.957,5.957,0,0,1-6.637.315L.91,147.627Z" transform="translate(289.237 -25.43)"/>
        <path id="XMLID_1150_" class="cls-12" d="M341.19,191.364c0-.921,1.405-1.676,3.144-1.676a5.623,5.623,0,0,1,1.342.166l48.984-29.784.572,1.029-48.269,29.352a1.214,1.214,0,0,1,.508.913c0,.929-1.405,1.676-3.144,1.676S341.19,192.285,341.19,191.364Z" transform="translate(-288.594 -27.724)"/>
        <path id="XMLID_1151_" class="cls-12" d="M341.768,206.92c0,.921-1.405,1.676-3.144,1.676s-3.144-.747-3.144-1.676,1.405-1.676,3.144-1.676a5.539,5.539,0,0,1,1.381.174l14.751-8.664a.753.753,0,0,0,.365-.639.722.722,0,0,0-.341-.647l-4.8-3.112a1.987,1.987,0,0,1,.04-3.328l39.33-23.958.572,1.029-39.33,23.958a.767.767,0,0,0-.016,1.286l4.8,3.112a1.962,1.962,0,0,1,.881,1.693,1.935,1.935,0,0,1-.945,1.651l-14.028,8.241A1.186,1.186,0,0,1,341.768,206.92Z" transform="translate(-278.748 -28.574)"/>
        <path id="XMLID_1152_" class="cls-12" d="M369.532,181.417a5.721,5.721,0,0,1,1.1.108l7.931-5.228a5.909,5.909,0,0,1,6.835.191l5.168,3.817a4.849,4.849,0,0,0,5.406.257l56.478-34.082.572,1.029L396.54,181.591a5.958,5.958,0,0,1-6.637-.315l-5.168-3.817a4.837,4.837,0,0,0-5.573-.158l-7.193,4.747a1.335,1.335,0,0,1,.7,1.046c0,.921-1.405,1.676-3.144,1.676s-3.144-.747-3.144-1.676S367.793,181.417,369.532,181.417Z" transform="translate(-366.38 -25.412)"/>
        <path id="XMLID_1153_" class="cls-12" d="M273.456,244.237a5.583,5.583,0,0,1,1.27.141l10.464-6.83a1.838,1.838,0,0,0-.048-3.079l-4.684-2.83a3.059,3.059,0,0,1-.024-5.162l34.789-21.568.58,1.029L281.014,227.5a1.842,1.842,0,0,0,.016,3.1l4.684,2.822a3.066,3.066,0,0,1,.087,5.129l-9.773,6.382a1.243,1.243,0,0,1,.58.963c0,.921-1.405,1.676-3.144,1.676s-3.144-.747-3.144-1.676C270.32,244.984,271.725,244.237,273.456,244.237Z" transform="translate(-152.902 -35.353)"/>
        <path id="XMLID_1154_" class="cls-12" d="M299.074,243.554a5.813,5.813,0,0,1,1.358.166l87.289-52.68.572,1.029-86.575,52.248a1.2,1.2,0,0,1,.5.9c0,.921-1.405,1.676-3.144,1.676s-3.144-.747-3.144-1.676S297.335,243.554,299.074,243.554Z" transform="translate(-245.724 -32.993)"/>
      </g>
      <g id="Group" transform="translate(128.105 90.269)">
        <g id="Group_54" data-name="Group 54" transform="translate(0 0)">
          <path id="Path-2" data-name="Path" class="cls-13" d="M1.96,41.387S65.226.732,197.045.109c43.934-.207,122.88,12.05,169.99,35.95,54.874,27.85,57.256,63.592,57.256,63.592l.008,4.755c-2.969,9.469-11.369,32.074-26.945,44.132-20.038,15.518-31.915,21.776-31.915,21.776l-6.669-3.934L8.8,43.827Z" transform="translate(-1.96 -0.107)"/>
          <path id="Path-3" data-name="Path" class="cls-14" d="M418.23,278.407s-24.254-75.65-197.626-90.2C100.893,178.16,5.68,222.085,5.68,222.085V45.017S60.991,7.731,192.81,7.106c43.934-.2,122.88,12.052,169.99,35.952,54.874,27.858,55.033,65.352,55.033,65.352Z" transform="translate(1.155 -1.297)"/>
          <g id="XMLID_915_" class="cls-15" transform="translate(190.004 24.709)">
            <text id="đăng_nhập" data-name="đăng nhập" class="cls-16" transform="translate(15.931 11.78) rotate(11)"><tspan x="0" y="0">đăng nhập</tspan></text>
            <g id="Group_98" data-name="Group 98" transform="translate(0 11.496)">
              <path id="XMLID_916_" class="cls-17" d="M.57.02V9.007l87.964,19.95.191-9.236Z" transform="translate(-0.57 9.345)"/>
              <text id="Tài_khoản" data-name="Tài khoản" class="cls-18" transform="translate(1.956 3.927) rotate(11)"><tspan x="0" y="0">Tài khoản</tspan></text>
            </g>
            <g id="Group_97" data-name="Group 97" transform="translate(0 36.392)">
              <path id="XMLID_917_" class="cls-17" d="M.57,16.7v8.987L88.534,45.629l.191-9.22Z" transform="translate(-0.57 -6.771)"/>
              <text id="Mật_khẩu" data-name="Mật khẩu" class="cls-18" transform="translate(0.368 3.927) rotate(11)"><tspan x="0" y="0">Mật khẩu</tspan></text>
            </g>
            <g id="Group_96" data-name="Group 96" transform="translate(19.053 68.752)">
              <path id="XMLID_920_" class="cls-17" d="M61.7,66.73v8.987L101.133,85l.191-9.228Z" transform="translate(-61.7 -66.73)"/>
              <text id="Đăng_nhập-2" data-name="Đăng nhập" class="cls-19" transform="translate(7.401 6.238) rotate(11)"><tspan x="0" y="0">Đăng nhập</tspan></text>
            </g>
          </g>
          <g id="XMLID_943_" class="cls-20" transform="translate(13.425 57.329)">
            <path id="XMLID_942_" class="cls-21" d="M66.105,125.506l-32.6-19.676L.91,125.506,33.96,144.9Z" transform="translate(-0.91 -18.163)"/>
            <path id="XMLID_941_" class="cls-22" d="M66.105,111.4,33.508,91.73.91,111.4l33.05,19.4Z" transform="translate(-0.91 -15.765)"/>
            <path id="XMLID_940_" class="cls-23" d="M66.105,93.7,33.508,74.03.91,93.7l33.05,19.4Z" transform="translate(-0.91 -12.753)"/>
            <path id="XMLID_939_" class="cls-24" d="M66.105,78.418,33.508,58.75.91,78.418l33.05,19.4Z" transform="translate(-0.91 -10.153)"/>
            <path id="XMLID_938_" class="cls-25" d="M66.105,63.146,33.508,43.47.91,63.146,33.96,82.54Z" transform="translate(-0.91 -7.554)"/>
            <path id="XMLID_937_" class="cls-26" d="M66.105,48.716,33.508,29.04.91,48.716,33.96,68.11Z" transform="translate(-0.91 -5.099)"/>
            <path id="XMLID_936_" class="cls-27" d="M66.105,34.288,33.508,14.62.91,34.288l33.05,19.4Z" transform="translate(-0.91 -2.645)"/>
            <path id="XMLID_925_" class="cls-26" d="M66.105,19.866,33.508.19.91,19.866,33.96,39.26Z" transform="translate(-0.91 -0.19)"/>
          </g>
          <g id="XMLID_926_" class="cls-28" transform="translate(83.796 19.546)">
            <path id="XMLID_935_" class="cls-17" d="M54.3.66V6.2L.139,16.386.02,10.7Z" transform="translate(-0.02 -0.66)"/>
            <path id="XMLID_934_" class="cls-17" d="M54.3,10.93v5.527L.139,26.656.02,20.971Z" transform="translate(-0.02 -2.407)"/>
            <path id="XMLID_933_" class="cls-17" d="M54.3,21.19v5.535L.139,36.916.02,31.231Z" transform="translate(-0.02 -4.153)"/>
            <path id="XMLID_932_" class="cls-17" d="M54.3,31.46V37L.139,47.186.02,41.5Z" transform="translate(-0.02 -5.9)"/>
            <path id="XMLID_931_" class="cls-17" d="M24.417,41.73v5.527L.131,52.045.02,46.361Z" transform="translate(29.862 -7.648)"/>
            <path id="XMLID_930_" class="cls-17" d="M54.3,51.99v5.535L.139,67.724.02,62.04Z" transform="translate(-0.02 -9.393)"/>
            <path id="XMLID_929_" class="cls-17" d="M54.3,62.26V67.8L.139,77.986.02,72.3Z" transform="translate(-0.02 -11.141)"/>
            <path id="XMLID_928_" class="cls-17" d="M54.3,72.53v5.527L.139,88.256.02,82.571Z" transform="translate(-0.02 -12.888)"/>
            <path id="XMLID_927_" class="cls-17" d="M54.3,82.79v5.535L.139,98.524.02,92.84Z" transform="translate(-0.02 -14.634)"/>
          </g>
          <g id="XMLID_94_" class="cls-28" transform="translate(83.796 100.549)">
            <path id="XMLID_122_" class="cls-17" d="M54.3.27V5.805L.139,16,.02,10.32Z" transform="translate(-0.02 -0.27)"/>
            <path id="XMLID_121_" class="cls-17" d="M54.3,10.54v5.535L.139,26.266.02,20.581Z" transform="translate(-0.02 -2.017)"/>
            <path id="XMLID_118_" class="cls-17" d="M54.3,20.81v5.527L.139,36.536.02,30.851Z" transform="translate(-0.02 -3.765)"/>
            <path id="XMLID_117_" class="cls-17" d="M54.3,31.07v5.535L.139,46.8.02,41.12Z" transform="translate(-0.02 -5.51)"/>
            <path id="XMLID_116_" class="cls-17" d="M24.417,41.34v5.535L.131,51.655.02,45.971Z" transform="translate(29.862 -7.258)"/>
            <path id="XMLID_112_" class="cls-17" d="M54.3,51.61v5.527L.139,67.336.02,61.651Z" transform="translate(-0.02 -9.005)"/>
            <path id="XMLID_97_" class="cls-17" d="M54.3,61.87v5.535L.139,77.6.02,71.92Z" transform="translate(-0.02 -10.751)"/>
            <path id="XMLID_96_" class="cls-17" d="M54.3,72.14v5.535L.139,87.866.02,82.181Z" transform="translate(-0.02 -12.498)"/>
            <path id="XMLID_95_" class="cls-17" d="M54.3,82.41v5.527L.139,98.136.02,92.451Z" transform="translate(-0.02 -14.245)"/>
          </g>
          <ellipse id="Oval" class="cls-29" cx="18.014" cy="31.618" rx="18.014" ry="31.618" transform="translate(367.711 71.337)"/>
          <ellipse id="Oval-2" data-name="Oval" class="cls-30" cx="18.014" cy="31.618" rx="18.014" ry="31.618" transform="translate(364.988 144.05)"/>
          <g id="XMLID_914_" transform="translate(147.8 65.587)">
            <g id="XMLID_910_" transform="translate(50.865 64.256)">
              <path id="XMLID_913_" class="cls-26" d="M27.777,18.569l.611,29.958-12.139-.664L15.63,17.93Z" transform="translate(-15.63 -3.524)"/>
              <path id="XMLID_912_" class="cls-27" d="M12.055,1.46.75,15.767l.611,29.958L13.175,30.4Z" transform="translate(11.397 -0.721)"/>
              <path id="XMLID_911_" class="cls-31" d="M25.612,1.309,13.679.57,2.16,14.976l12.147.639Z" transform="translate(-2.16 -0.57)"/>
            </g>
            <g id="XMLID_906_" transform="translate(25.437 36.921)">
              <path id="XMLID_909_" class="cls-23" d="M27.129,18.629l1.151,55.8-12.139-.656L14.99,17.99Z" transform="translate(-14.99 -3.584)"/>
              <path id="XMLID_908_" class="cls-24" d="M11.423,1.52.11,15.827l1.151,55.8L13.074,56.307Z" transform="translate(12.029 -0.781)"/>
              <path id="XMLID_907_" class="cls-25" d="M25.642,1.369,13.7.63,2.19,15.036l12.139.639Z" transform="translate(-2.19 -0.63)"/>
            </g>
            <g id="XMLID_902_" transform="translate(0 0)">
              <path id="XMLID_905_" class="cls-22" d="M27.217,18.139l1.905,92.787-12.147-.656L15.07,17.5Z" transform="translate(-15.07 -3.094)"/>
              <path id="XMLID_904_" class="cls-21" d="M11.5,1.03.19,15.337,2.1,108.124,13.909,92.8Z" transform="translate(11.957 -0.291)"/>
              <path id="XMLID_903_" class="cls-32" d="M26.682.879,14.749.14,3.23,14.546l12.147.639Z" transform="translate(-3.23 -0.14)"/>
            </g>
          </g>
          <path id="Path-4" data-name="Path" class="cls-33" d="M.859,362.825.47,190.3s15.108-4.987,36.583-25.767,21.872-46.97,21.872-46.97l1.588,174.155s-.746,19.278-17.895,44.887c-9.86,14.722-26.691,23.809-35.678,27.858Z" transform="translate(363.009 -20.09)"/>
          <g id="XMLID_98_" class="cls-34" transform="translate(377.841 152.722)">
            <path id="XMLID_107_" class="cls-17" d="M40.546.14V5.667L.327,36.546.24,30.911Z" transform="translate(-0.24 -0.14)"/>
            <path id="XMLID_106_" class="cls-17" d="M40.546,10.4v5.535L.327,46.814.24,41.171Z" transform="translate(-0.24 -1.886)"/>
            <path id="XMLID_105_" class="cls-17" d="M40.546,20.67v5.535L.327,57.084.24,51.441Z" transform="translate(-0.24 -3.633)"/>
            <path id="XMLID_104_" class="cls-17" d="M40.546,30.94v5.527L.327,67.346.24,61.711Z" transform="translate(-0.24 -5.38)"/>
            <path id="XMLID_103_" class="cls-17" d="M18.357,41.2v5.535L.327,60.793.24,55.15Z" transform="translate(21.95 -7.126)"/>
            <path id="XMLID_102_" class="cls-17" d="M40.546,51.47v5.535L.327,87.884.24,82.241Z" transform="translate(-0.24 -8.873)"/>
            <path id="XMLID_101_" class="cls-17" d="M40.546,61.74v5.527L.327,98.146.24,92.511Z" transform="translate(-0.24 -10.621)"/>
            <path id="XMLID_100_" class="cls-17" d="M40.546,72v5.535L.327,108.414.24,102.771Z" transform="translate(-0.24 -12.366)"/>
            <path id="XMLID_99_" class="cls-17" d="M40.546,82.27v5.535L.327,118.684.24,113.041Z" transform="translate(-0.24 -14.114)"/>
            <path id="XMLID_111_" class="cls-17" d="M40.546,112.55v5.535L.327,148.964.24,143.321Z" transform="translate(-0.24 -19.265)"/>
            <path id="XMLID_110_" class="cls-17" d="M40.546,122.82v5.527L.327,159.226.24,153.591Z" transform="translate(-0.24 -21.013)"/>
            <path id="XMLID_109_" class="cls-17" d="M40.546,133.08v5.535L.327,169.494.24,163.851Z" transform="translate(-0.24 -22.758)"/>
            <path id="XMLID_108_" class="cls-17" d="M40.546,143.35v5.535L.327,179.764.24,174.121Z" transform="translate(-0.24 -24.506)"/>
          </g>
          <path id="Path-5" data-name="Path" class="cls-13" d="M60.665,117.56l.206,22.763C53.02,158.3,36.229,184.14,2.226,196l-.016-5.7s15.108-4.987,36.583-25.767S60.665,117.56,60.665,117.56Z" transform="translate(361.269 -20.09)"/>
          <path id="Path-6" data-name="Path" class="cls-35" d="M68.534,205.21l6.026,3.718V379.149l-6.05-1.261Z" transform="translate(294.945 -35.003)"/>
        </g>
        <path id="Path-7" data-name="Path" class="cls-36" d="M532.164,52.29V229.357L525.32,225.6V49.85Z" transform="translate(-525.32 -8.57)"/>
      </g>
      <ellipse id="Oval-3" data-name="Oval" class="cls-37" cx="4.533" cy="4.739" rx="4.533" ry="4.739" transform="translate(65.562 119.864)"/>
      <g id="Group-2" data-name="Group" transform="translate(25.009 15.566)">
        <ellipse id="Oval-4" data-name="Oval" class="cls-37" cx="4.533" cy="4.739" rx="4.533" ry="4.739" transform="translate(447.522 70.191)"/>
        <g id="Group_55" data-name="Group 55" transform="translate(0 0)">
          <path id="moon" class="cls-38" d="M554.8,49.641a26.964,26.964,0,0,1-39.322.108,30,30,0,0,1-.1-41.095,26.955,26.955,0,0,1,39.314-.108A29.981,29.981,0,0,1,554.8,49.641Z" transform="translate(-415.616 -0.089)"/>
          <ellipse id="Oval-5" data-name="Oval" class="cls-39" cx="9.971" cy="10.423" rx="9.971" ry="10.423" transform="translate(372.292 17.129)"/>
          <ellipse id="Oval-6" data-name="Oval" class="cls-40" cx="7.479" cy="7.817" rx="7.479" ry="7.817" transform="translate(534.866 124.812)"/>
          <ellipse id="Oval-7" data-name="Oval" class="cls-41" cx="4.533" cy="4.739" rx="4.533" ry="4.739" transform="translate(248.118 28.499)"/>
          <path id="Path-8" data-name="Path" class="cls-42" d="M289.278,36.95l-.953,2.025-2.136.324,1.548,1.568-.365,2.224,1.905-1.046,1.905,1.046-.357-2.224,1.54-1.568-2.136-.324Z" transform="translate(30.441 -6.36)"/>
          <path id="Path-9" data-name="Path" class="cls-43" d="M46.538,98.96l-.953,2.025-2.136.324L45,102.885l-.365,2.216,1.905-1.046,1.913,1.046-.365-2.216,1.54-1.577-2.136-.324Z" transform="translate(465.893 -16.91)"/>
          <path id="Path-10" data-name="Path" class="cls-42" d="M3.718,244.54l-.953,2.025-2.136.324,1.54,1.577-.357,2.216,1.905-1.046,1.905,1.046-.365-2.216,1.548-1.577-2.136-.324Z" transform="translate(542.707 -41.679)"/>
          <path id="Path-11" data-name="Path" class="cls-42" d="M688.108,195.32l-.953,2.025-2.136.324,1.54,1.577-.357,2.216,1.905-1.046,1.905,1.046-.365-2.216,1.548-1.577-2.136-.324Z" transform="translate(-685.02 -33.305)"/>
          <path id="Path-12" data-name="Path" class="cls-42" d="M650.388,65.1l-.953,2.025-2.136.324,1.54,1.577-.365,2.216,1.913-1.046,1.905,1.046-.365-2.216,1.548-1.577-2.136-.324Z" transform="translate(-617.354 -11.15)"/>
        </g>
      </g>
      <g id="Group-3" data-name="Group" transform="translate(52.835 44.355)">
        <g id="XMLID_804_" transform="translate(1.373 236.178)">
          <g id="XMLID_817_" transform="translate(21.88 0)">
            <path id="XMLID_820_" class="cls-22" d="M15.315,11.11v8.639L.85,28.653v-8.9Z" transform="translate(13.75 -2.206)"/>
            <path id="XMLID_819_" class="cls-32" d="M29.915,9.284,15.45.38.85,9.193l14.6,8.73Z" transform="translate(-0.85 -0.38)"/>
            <path id="XMLID_818_" class="cls-21" d="M19.07,11v8.73l14.6,8.9v-8.9Z" transform="translate(-19.07 -2.187)"/>
          </g>
          <g id="XMLID_813_" transform="translate(43.712 13.228)">
            <path id="XMLID_816_" class="cls-22" d="M14.807,11.05v8.631L.35,28.585v-8.9Z" transform="translate(14.258 -2.146)"/>
            <path id="XMLID_815_" class="cls-32" d="M29.415,9.224,14.958.32.35,9.133l14.608,8.722Z" transform="translate(-0.35 -0.32)"/>
            <path id="XMLID_814_" class="cls-21" d="M18.56,10.94v8.722l14.608,8.9v-8.9Z" transform="translate(-18.56 -2.127)"/>
          </g>
          <g id="XMLID_809_" transform="translate(0 13.228)">
            <path id="XMLID_812_" class="cls-22" d="M14.867,11.05v8.631L.41,28.585v-8.9Z" transform="translate(14.198 -2.146)"/>
            <path id="XMLID_811_" class="cls-32" d="M29.475,9.224,15.018.32.41,9.133l14.608,8.722Z" transform="translate(-0.41 -0.32)"/>
            <path id="XMLID_810_" class="cls-21" d="M18.62,10.94v8.722l14.608,8.9v-8.9Z" transform="translate(-18.62 -2.127)"/>
          </g>
          <g id="XMLID_805_" transform="translate(21.84 26.448)">
            <path id="XMLID_808_" class="cls-22" d="M15.357,10.98v8.639L.9,28.523v-8.9Z" transform="translate(13.708 -2.076)"/>
            <path id="XMLID_807_" class="cls-32" d="M29.965,9.154,15.508.25.9,9.063l14.608,8.73Z" transform="translate(-0.9 -0.25)"/>
            <path id="XMLID_806_" class="cls-21" d="M19.11,10.87V19.6l14.608,8.9V19.6Z" transform="translate(-19.11 -2.057)"/>
          </g>
        </g>
        <g id="XMLID_968_" class="cls-44" transform="translate(0 0)">
          <path id="XMLID_944_" class="cls-45" d="M73.776,256.676,74.515.78s-21.888,3.892-28.549,7.1C33.16,14.066.42,46.962.42,46.962l.762,209.714,36.3,21.908Z" transform="translate(-0.42 -0.78)"/>
        </g>
      </g>
      <g id="XMLID_77_" transform="translate(422.07 407.959)">
        <g id="XMLID_90_" transform="translate(21.872 0)">
          <path id="XMLID_93_" class="cls-22" d="M14.957,11.66V20.3L.5,29.2V20.3Z" transform="translate(14.108 -2.756)"/>
          <path id="XMLID_92_" class="cls-32" d="M29.565,9.834,15.108.93.5,9.751l14.608,8.722Z" transform="translate(-0.5 -0.93)"/>
          <path id="XMLID_91_" class="cls-21" d="M18.71,11.56v8.722l14.608,8.9v-8.9Z" transform="translate(-18.71 -2.739)"/>
        </g>
        <g id="XMLID_86_" transform="translate(43.712 13.228)">
          <path id="XMLID_89_" class="cls-22" d="M15.447,11.6v8.631L.99,29.143V20.231Z" transform="translate(13.618 -2.696)"/>
          <path id="XMLID_88_" class="cls-32" d="M30.055,9.774,15.6.87.99,9.683,15.6,18.4Z" transform="translate(-0.99 -0.87)"/>
          <path id="XMLID_87_" class="cls-21" d="M19.2,11.49v8.722l14.608,8.913V20.212Z" transform="translate(-19.2 -2.677)"/>
        </g>
        <g id="XMLID_82_" transform="translate(0 13.228)">
          <path id="XMLID_85_" class="cls-22" d="M14.507,11.6v8.631L.05,29.143V20.231Z" transform="translate(14.558 -2.696)"/>
          <path id="XMLID_84_" class="cls-32" d="M29.115,9.774,14.658.87.05,9.683,14.658,18.4Z" transform="translate(-0.05 -0.87)"/>
          <path id="XMLID_83_" class="cls-21" d="M18.26,11.49v8.722l14.608,8.913V20.212Z" transform="translate(-18.26 -2.677)"/>
        </g>
        <g id="XMLID_78_" transform="translate(21.84 26.448)">
          <path id="XMLID_81_" class="cls-22" d="M15,11.53v8.639L.54,29.073v-8.9Z" transform="translate(14.068 -2.626)"/>
          <path id="XMLID_80_" class="cls-32" d="M29.6,9.7,15.148.8.54,9.613l14.608,8.73Z" transform="translate(-0.54 -0.8)"/>
          <path id="XMLID_79_" class="cls-21" d="M18.75,11.42v8.73l14.608,8.9v-8.9Z" transform="translate(-18.75 -2.607)"/>
        </g>
      </g>
      <path id="XMLID_76_" class="cls-46" d="M229.416,456.8l.738-390.682s-21.4-6.116-28.549-7.817C171.747,51.2,156.06,47.65,156.06,47.65l.762,409.163,36.3,21.908Z" transform="translate(274.164 -29.128)"/>
      <g id="XMLID_53_" class="cls-47" transform="translate(422.593 300.965)">
        <g id="XMLID_63_" transform="translate(7.773 28.907)">
          <g id="XMLID_74_" transform="translate(0 84.095)">
            <path id="XMLID_75_" class="cls-48" d="M1.189,1.406C1.166.992,1.142.585,1.11.17,1.142.585,1.166.992,1.189,1.406Z" transform="translate(-1.11 -0.17)"/>
          </g>
          <path id="XMLID_73_" class="cls-49" d="M41.7,60.244a4.644,4.644,0,0,0,4.192-5.012,4.572,4.572,0,0,0-4.755-4.423,4.659,4.659,0,0,0-4.176,5.012A4.567,4.567,0,0,0,41.7,60.244Z" transform="translate(-14.727 -9.335)"/>
          <path id="XMLID_72_" class="cls-50" d="M42.473,94.816a4.211,4.211,0,0,0,3.795-4.539,4.144,4.144,0,0,0-4.3-4.008,4.21,4.21,0,0,0-3.787,4.539A4.136,4.136,0,0,0,42.473,94.816Z" transform="translate(-16.076 -15.368)"/>
          <path id="XMLID_71_" class="cls-51" d="M30.671,83.532a2.636,2.636,0,0,0,2.382-2.838,2.6,2.6,0,0,0-2.7-2.514,2.627,2.627,0,0,0-2.374,2.846A2.591,2.591,0,0,0,30.671,83.532Z" transform="translate(5.237 -13.992)"/>
          <path id="XMLID_70_" class="cls-52" d="M25.012,36.186a4.211,4.211,0,0,0,3.795-4.539,4.144,4.144,0,0,0-4.3-4.008,4.21,4.21,0,0,0-3.787,4.539A4.136,4.136,0,0,0,25.012,36.186Z" transform="translate(15.247 -5.393)"/>
          <path id="XMLID_69_" class="cls-53" d="M23.928,57.392A2.63,2.63,0,0,0,26.3,54.553a2.6,2.6,0,0,0-2.691-2.514,2.644,2.644,0,0,0-2.382,2.846A2.6,2.6,0,0,0,23.928,57.392Z" transform="translate(17.347 -9.545)"/>
          <path id="XMLID_68_" class="cls-54" d="M3.111,33.312a2.639,2.639,0,0,0,2.382-2.846,2.592,2.592,0,0,0-2.7-2.506A2.627,2.627,0,0,0,.42,30.805,2.591,2.591,0,0,0,3.111,33.312Z" transform="translate(54.677 -5.448)"/>
          <path id="XMLID_67_" class="cls-55" d="M13.891,8.921a2.633,2.633,0,0,0,2.374-2.846,2.586,2.586,0,0,0-2.691-2.506A2.632,2.632,0,0,0,11.2,6.415,2.582,2.582,0,0,0,13.891,8.921Z" transform="translate(35.347 -1.298)"/>
          <path id="XMLID_66_" class="cls-52" d="M45.053,17.476a4.216,4.216,0,0,0,3.795-4.539,4.154,4.154,0,0,0-4.3-4.008,4.21,4.21,0,0,0-3.787,4.539A4.136,4.136,0,0,0,45.053,17.476Z" transform="translate(-20.704 -2.21)"/>
          <path id="XMLID_65_" class="cls-56" d="M54.068,30.28a2.632,2.632,0,0,0,2.374-2.846,2.6,2.6,0,0,0-2.691-2.514,2.644,2.644,0,0,0-2.382,2.846A2.6,2.6,0,0,0,54.068,30.28Z" transform="translate(-36.721 -4.931)"/>
          <path id="XMLID_64_" class="cls-57" d="M33.25,6.2a2.644,2.644,0,0,0,2.382-2.846,2.6,2.6,0,0,0-2.7-2.514,2.633,2.633,0,0,0-2.374,2.846A2.592,2.592,0,0,0,33.25,6.2Z" transform="translate(0.61 -0.834)"/>
        </g>
        <path id="XMLID_62_" class="cls-58" d="M51.045,125.865c6.748-.448,11.869-6.581,11.44-13.709s-6.232-12.539-12.972-12.091-11.861,6.589-11.44,13.709S44.3,126.3,51.045,125.865Z" transform="translate(-24.44 -17.02)"/>
        <path id="XMLID_61_" class="cls-58" d="M68.186,131.7c6.74-.448,11.869-6.589,11.44-13.709s-6.232-12.539-12.972-12.091-11.869,6.581-11.44,13.709S61.446,132.143,68.186,131.7Z" transform="translate(-55.188 -18.012)"/>
        <path id="XMLID_60_" class="cls-59" d="M66.016,110.915c6.74-.448,11.861-6.589,11.44-13.709S71.224,84.667,64.484,85.115,52.623,91.7,53.044,98.824,59.276,111.355,66.016,110.915Z" transform="translate(-51.296 -14.477)"/>
        <path id="XMLID_59_" class="cls-60" d="M31.209,88.078a8.016,8.016,0,0,0,7.224-8.655A7.883,7.883,0,0,0,30.24,71.8a8.019,8.019,0,0,0-7.224,8.647A7.885,7.885,0,0,0,31.209,88.078Z" transform="translate(11.568 -12.212)"/>
        <path id="XMLID_58_" class="cls-61" d="M63,25.826c6.74-.448,11.869-6.589,11.44-13.709S68.2-.422,61.464.026,49.6,6.615,50.024,13.735,56.256,26.274,63,25.826Z" transform="translate(-45.88 0)"/>
        <path id="XMLID_57_" class="cls-58" d="M25.255,112.175c6.74-.448,11.869-6.589,11.44-13.709S30.463,85.927,23.723,86.375s-11.861,6.589-11.44,13.709S18.515,112.615,25.255,112.175Z" transform="translate(21.825 -14.691)"/>
        <path id="XMLID_56_" class="cls-62" d="M39.784,33.181A7.032,7.032,0,0,0,46.119,25.6a6.927,6.927,0,0,0-7.185-6.689,7.026,7.026,0,0,0-6.327,7.585A6.9,6.9,0,0,0,39.784,33.181Z" transform="translate(-3.732 -3.215)"/>
        <path id="XMLID_55_" class="cls-63" d="M28.86,45.42a2.632,2.632,0,0,0,2.374-2.846,2.592,2.592,0,0,0-2.691-2.514,2.632,2.632,0,0,0-2.374,2.846A2.592,2.592,0,0,0,28.86,45.42Z" transform="translate(16.267 -6.815)"/>
        <path id="XMLID_54_" class="cls-64" d="M15.8,92.723a2.63,2.63,0,0,0,2.374-2.838,2.58,2.58,0,0,0-2.691-2.506A2.639,2.639,0,0,0,13.1,90.225,2.591,2.591,0,0,0,15.8,92.723Z" transform="translate(39.705 -14.865)"/>
      </g>
      <g id="XMLID_30_" transform="translate(421.799 224.72)">
        <g id="XMLID_40_" transform="translate(8.567 13.228)">
          <g id="XMLID_51_" transform="translate(0 84.095)">
            <path id="XMLID_52_" class="cls-65" d="M1.189,1.636C1.166,1.222,1.142.815,1.11.4,1.142.807,1.166,1.222,1.189,1.636Z" transform="translate(-1.11 -0.4)"/>
          </g>
          <path id="XMLID_50_" class="cls-66" d="M41.7,59.474a4.644,4.644,0,0,0,4.192-5.012,4.572,4.572,0,0,0-4.755-4.423,4.659,4.659,0,0,0-4.176,5.012A4.578,4.578,0,0,0,41.7,59.474Z" transform="translate(-14.727 -8.565)"/>
          <path id="XMLID_49_" class="cls-67" d="M42.473,94.046a4.211,4.211,0,0,0,3.795-4.539,4.144,4.144,0,0,0-4.3-4.008,4.21,4.21,0,0,0-3.787,4.539A4.147,4.147,0,0,0,42.473,94.046Z" transform="translate(-16.076 -14.598)"/>
          <path id="XMLID_48_" class="cls-51" d="M30.671,82.762a2.636,2.636,0,0,0,2.382-2.838,2.6,2.6,0,0,0-2.7-2.514,2.627,2.627,0,0,0-2.374,2.846A2.591,2.591,0,0,0,30.671,82.762Z" transform="translate(5.237 -13.222)"/>
          <path id="XMLID_47_" class="cls-52" d="M25.012,35.406a4.211,4.211,0,0,0,3.795-4.539,4.144,4.144,0,0,0-4.3-4.008A4.21,4.21,0,0,0,20.717,31.4,4.136,4.136,0,0,0,25.012,35.406Z" transform="translate(15.247 -4.621)"/>
          <path id="XMLID_46_" class="cls-68" d="M23.928,56.611A2.633,2.633,0,0,0,26.3,53.765a2.586,2.586,0,0,0-2.691-2.506,2.644,2.644,0,0,0-2.382,2.846A2.6,2.6,0,0,0,23.928,56.611Z" transform="translate(17.347 -8.773)"/>
          <path id="XMLID_45_" class="cls-54" d="M3.111,32.532a2.639,2.639,0,0,0,2.382-2.846,2.592,2.592,0,0,0-2.7-2.506A2.627,2.627,0,0,0,.42,30.025,2.591,2.591,0,0,0,3.111,32.532Z" transform="translate(54.677 -4.676)"/>
          <path id="XMLID_44_" class="cls-69" d="M13.891,8.14a2.633,2.633,0,0,0,2.374-2.846,2.6,2.6,0,0,0-2.691-2.514A2.632,2.632,0,0,0,11.2,5.625,2.583,2.583,0,0,0,13.891,8.14Z" transform="translate(35.347 -0.525)"/>
          <path id="XMLID_43_" class="cls-52" d="M45.053,16.706a4.216,4.216,0,0,0,3.795-4.539,4.154,4.154,0,0,0-4.3-4.008A4.21,4.21,0,0,0,40.758,12.7,4.136,4.136,0,0,0,45.053,16.706Z" transform="translate(-20.704 -1.44)"/>
          <path id="XMLID_42_" class="cls-56" d="M54.068,29.5a2.632,2.632,0,0,0,2.374-2.846,2.6,2.6,0,0,0-2.691-2.514,2.644,2.644,0,0,0-2.382,2.846A2.6,2.6,0,0,0,54.068,29.5Z" transform="translate(-36.721 -4.159)"/>
          <path id="XMLID_41_" class="cls-70" d="M33.25,5.422a2.641,2.641,0,0,0,2.382-2.838,2.6,2.6,0,0,0-2.7-2.514,2.633,2.633,0,0,0-2.374,2.846A2.591,2.591,0,0,0,33.25,5.422Z" transform="translate(0.61 -0.064)"/>
        </g>
        <path id="XMLID_39_" class="cls-61" d="M52.045,107.085c6.748-.448,11.869-6.581,11.44-13.709S57.253,80.837,50.513,81.285s-11.861,6.589-11.44,13.709S45.3,107.533,52.045,107.085Z" transform="translate(-25.44 -13.928)"/>
        <path id="XMLID_38_" class="cls-71" d="M69.186,112.925c6.74-.448,11.869-6.589,11.44-13.709S74.394,86.677,67.654,87.125s-11.869,6.589-11.44,13.709S62.446,113.365,69.186,112.925Z" transform="translate(-56.188 -14.922)"/>
        <path id="XMLID_37_" class="cls-72" d="M67.016,92.135c6.74-.448,11.861-6.589,11.44-13.709S72.224,65.887,65.484,66.335s-11.861,6.581-11.44,13.709S60.276,92.583,67.016,92.135Z" transform="translate(-52.296 -11.384)"/>
        <path id="XMLID_36_" class="cls-60" d="M31,69.3a8.016,8.016,0,0,0,7.224-8.655,7.883,7.883,0,0,0-8.193-7.626,8.019,8.019,0,0,0-7.224,8.647A7.885,7.885,0,0,0,31,69.3Z" transform="translate(12.738 -9.12)"/>
        <path id="XMLID_35_" class="cls-61" d="M18,47.826c6.74-.448,11.869-6.589,11.44-13.709S23.2,21.578,16.464,22.026,4.6,28.615,5.024,35.735,11.256,48.274,18,47.826Z" transform="translate(35.639 -3.846)"/>
        <path id="XMLID_34_" class="cls-61" d="M24,100.826c6.74-.448,11.869-6.589,11.44-13.709S29.2,74.578,22.464,75.026,10.6,81.615,11.024,88.735,17.256,101.274,24,100.826Z" transform="translate(24.876 -12.863)"/>
        <path id="XMLID_33_" class="cls-73" d="M39.574,14.411A7.032,7.032,0,0,0,45.91,6.826,6.927,6.927,0,0,0,38.725.137,7.026,7.026,0,0,0,32.4,7.722,6.909,6.909,0,0,0,39.574,14.411Z" transform="translate(-2.561 -0.124)"/>
        <path id="XMLID_32_" class="cls-74" d="M28.65,26.64a2.632,2.632,0,0,0,2.374-2.846,2.592,2.592,0,0,0-2.691-2.514,2.632,2.632,0,0,0-2.374,2.846A2.587,2.587,0,0,0,28.65,26.64Z" transform="translate(17.437 -3.722)"/>
        <path id="XMLID_31_" class="cls-64" d="M16.8,73.953a2.63,2.63,0,0,0,2.374-2.838,2.58,2.58,0,0,0-2.691-2.506A2.639,2.639,0,0,0,14.1,71.455,2.6,2.6,0,0,0,16.8,73.953Z" transform="translate(38.705 -11.775)"/>
      </g>
      <g id="XMLID_1_" transform="translate(430.359 242.526)">
        <path id="XMLID_28_" class="cls-75" d="M43.137,143.027,13.27,102.057l28.6-38.082L17.883,13.71" transform="translate(-1.893 -2.814)"/>
        <g id="XMLID_24_" transform="translate(28.374 124.985)">
          <path id="XMLID_27_" class="cls-26" d="M4.493.19l6.764,9.543L6.8,20.621,0,11.036Z" transform="translate(11.353 -0.19)"/>
          <path id="XMLID_26_" class="cls-27" d="M5.62,14.613,16.973,13.26l6.8,9.585L12.376,24.322Z" transform="translate(-5.62 -2.414)"/>
          <path id="XMLID_25_" class="cls-31" d="M13.069,1.443,24.366.19,19.873,11.036,8.52,12.389Z" transform="translate(-8.52 -0.19)"/>
        </g>
        <g id="XMLID_20_" transform="translate(0 88.048)">
          <path id="XMLID_23_" class="cls-26" d="M19.3,16.17l-7.264,9.137L.86,23.348l7.3-9.178Z" transform="translate(3.213 -2.975)"/>
          <path id="XMLID_22_" class="cls-27" d="M22.305.68l3.962,11.195-7.3,9.178L14.89,9.833Z" transform="translate(-14.89 -0.68)"/>
          <path id="XMLID_21_" class="cls-31" d="M12.118,2.7,15.96,13.875l-11.138-2L.86.68Z" transform="translate(6.555 -0.68)"/>
        </g>
        <g id="XMLID_16_" transform="translate(28.644 50.265)">
          <path id="XMLID_19_" class="cls-76" d="M.6.15l11.273,1.5,4.43,10.9L4.974,11.046Z" transform="translate(6.355 -0.15)"/>
          <path id="XMLID_18_" class="cls-24" d="M.6,22.782l6.915-9.5,11.329,1.51L11.977,24.4Z" transform="translate(3.814 -2.384)"/>
          <path id="XMLID_17_" class="cls-77" d="M14.87,9.544,21.825.15l4.374,10.9-6.915,9.5Z" transform="translate(-14.87 -0.15)"/>
        </g>
        <g id="XMLID_4_" transform="translate(4.66 0)">
          <path id="XMLID_15_" class="cls-32" d="M.81.58l11.273,1.5,4.43,10.9L5.184,11.476Z" transform="translate(6.145 -0.58)"/>
          <path id="XMLID_14_" class="cls-21" d="M.81,23.22l6.915-9.51,11.329,1.51-6.867,9.618Z" transform="translate(3.604 -2.814)"/>
          <path id="XMLID_5_" class="cls-22" d="M15.08,9.974,22.035.58l4.374,10.9-6.915,9.51Z" transform="translate(-15.08 -0.58)"/>
        </g>
      </g>
      <g id="Group-4" data-name="Group" transform="translate(336.051 328.532) rotate(171)">
        <path id="Path-13" data-name="Path" class="cls-78" d="M-.223,45.7S26.38,25,33.457,22.061s9.593-2.43,18.431-4.862S79.4,11.751,89.756,8A122.26,122.26,0,0,0,108.211-.545s-4.335,7.657-3.6,10.8a23.74,23.74,0,0,1,.722,4.993s-4.8.556-11.375,5.078S75.2,35.446,60.566,38.7s-20.432,2.248-20.432,2.248l-29.691,30.7Z" transform="translate(142.008 24.219)"/>
        <path id="Path-14" data-name="Path" class="cls-25" d="M.711,40.72l5.7,2.323a7.416,7.416,0,0,0,8.572-.765c4.228-3.536,7.3-11.093,9-12.853s6.568-2.848,9.306-9.358A20.931,20.931,0,0,0,33.059,3.6c-1.653-3.495-4-4-5.014-3.645S17.2,13.175,14.326,15.648,3.59,24.925,3.59,24.925s-4.663,6.78-3.6,10.8S.711,40.72.711,40.72Z" transform="translate(246.629 -1.242)"/>
        <path id="Path-15" data-name="Path" d="M20.085,29.444c-1.689,1.761-4.767,9.326-9,12.853a7.414,7.414,0,0,1-8.572.765l-.888-.367A8.421,8.421,0,0,1-.127,36.772C.4,32.74,3.79,28.679,7.686,24.8s8.795-9,10.5-12.168C19.265,10.624,21.377,5.039,23.249.8a4.028,4.028,0,0,1,.9-.827c1.012-.355,3.361.151,5.014,3.645a20.9,20.9,0,0,1,.223,16.47C26.66,26.6,21.781,27.683,20.085,29.444Z" transform="translate(250.522 -1.262)"/>
        <path id="Path-16" data-name="Path" class="cls-79" d="M24.891,58.859,37.118,39.319S52.929,11.513,52.782,8.538s-5.974-11-11.374-8.16S32.274,9.03,28.551,13.084-.2,41.851-.2,41.851Z" transform="translate(117.754 8.423)"/>
        <path id="Path-17" data-name="Path" class="cls-25" d="M5.335,4.9S2.107,9.875,1.471,11.064s-3.452,7.518.555,10.905,9.433,2.429,13.22,1.88,5.308-2.275,6.44-1.62,3,3.925,6.527,4.422,11.976-1,16.667-4.982-.7-8.8-7.37-10.2S24.819,5.38,22.186,3.426s-5.23-3.511-5.23-3.511S15.875,4.655,12.968,5.6,5.335,4.9,5.335,4.9Z" transform="translate(171.339 74.41)"/>
        <path id="Path-18" data-name="Path" d="M44.93,11.993c-4.692,3.979-13.142,5.48-16.667,4.982s-5.395-3.775-6.527-4.422-2.654,1.071-6.44,1.62-9.213,1.507-13.22-1.88S.877,2.577,1.521,1.387c.064-.117.153-.275.257-.458A33.611,33.611,0,0,1,10.725.005c4.281.368,6.786,2.58,11.834,2.28,4.651-.273,19.5-.053,24.089,5.949A4.015,4.015,0,0,1,44.93,11.993Z" transform="translate(171.282 84.087)"/>
        <path id="Path-19" data-name="Path" class="cls-80" d="M-.092,18.8s.478-4.927,1.422-7.081,3.949-5.731,5.7-8.155S8.719-.858,11.349.276s8.332,5.446,8.332,5.446Z" transform="translate(28.411 158.985)"/>
        <path id="Path-20" data-name="Path" class="cls-81" d="M64.47,41.646s-3.541-18.27-5.761-26.187S52.757-.051,50.152-.223s-8.7.285-16.627,7.287-17.2,12.612-19.3,13.116-6.727.486-8.87,3.66-5.878,7.875-5.49,9.248,5.44,4.206,6.944,3.889,7.843-3.329,9.738-6.252,3.344-5.71,8.132-8.562,9.44-3.34,14.523-5.125l5.082-1.785s3.3,20.833,5.629,24.572S54.9,47.358,60.06,46.377C65.2,45.388,64.47,41.646,64.47,41.646Z" transform="translate(4.301 113.681)"/>
        <path id="Path-21" data-name="Path" class="cls-82" d="M-.213,43.636A84.734,84.734,0,0,1,6.978,23.608c5.364-10.557,8.185-17.672,9.972-21.1S21.508-.417,26.793.864,32.822,3.715,36.6,5s13.329,4.64,15.8,11.2,1.952,9.975,4.71,12.327,4.991,7.061,5.96,13.105,1.939,11.815,1.4,15.765S60.4,64.516,60.4,64.516s-4.784-1.285-12.626,3.247-12.633,4.291-18.434,5.384a74.23,74.23,0,0,1-11.6,1.134" transform="translate(89.426 48.732)"/>
        <path id="Path-22" data-name="Path" class="cls-83" d="M1.629,62.382S-1.132,48.558.076,43.817s3.458-14.4,8.006-15.831a19.009,19.009,0,0,1,9.244-.239S27.309,16.984,31.558,10.3,38.685-.089,38.685-.089,44.243-1.7,49.722,7.369s8.756,22.9,5.71,25.55-4.047,2.656-5.744,4.425-27.206,22.8-27.206,22.8Z" transform="translate(50.536 92.464)"/>
        <path id="Path-23" data-name="Path" class="cls-84" d="M5.093,72.194S24.2,66.805,32.457,63.68s16.1-7.954,16.167-10.956-.672-9.959-8.4-18.543S26.2,15.364,25.581,13s-.8-7.679-4.233-9.909S12.637-.482,11.2.058,7.163,4,7.565,5.7s3.844,8.752,7.009,10.711,6.16,3.422,9.367,8.7S27.861,35.7,29.96,41.408l2.1,5.705S10.232,52.413,6.4,55.349-1.329,61.62-.081,67.456C1.175,73.308,5.093,72.194,5.093,72.194Z" transform="translate(56.179 75.543)"/>
        <path id="Path-24" data-name="Path" class="cls-85" d="M6.273,1S-.518,11.036-.08,21.553s1.564,16.817,4.726,21.7,11.177,12.538,15.5,18.99,4.646,8.729,4.646,8.729,5.7,1.892,8.735-.061a5.883,5.883,0,0,0,2.886-4.928S24.678,36.8,22.217,28.053,19.472,10.723,18.656,7.926,13.69-2.906,6.273,1Z" transform="translate(151.884 8.339)"/>
        <path id="Path-25" data-name="Path" class="cls-42" d="M21.872,1.287s-2.7.715-5.046,1.088a24.585,24.585,0,0,0-5.893,1.79c-1.682.716-2.661-3.836-4-4.175S5.9,2.973,6.227,4.2s3,4.364,4.659,6.806-.875,4.913-.875,4.913S.907,20.184.06,21.947s1.5,1.565,7.061-.572a86.26,86.26,0,0,0,9.438-4.269,14.441,14.441,0,0,0,4.934-4.561" transform="translate(-0.644 131.867)"/>
        <path id="Path-26" data-name="Path" class="cls-86" d="M8.16,88.389s9.893,9.787,25.206,2.791c12.827-5.859,13.025-14.108,21-19.917,5.495-4,21.849-13.233,38.515-9.761s33.2-2.379,45.584-18.655S154.7,17.294,154.7,17.294,134.562,19.955,121.1,8.527,77.569-2.4,60.771,4.356s-27.659,19.226-30.8,24.686-5.394,10.35-10.79,12.717S-.652,56.139-.32,67.037C0,77.919,2.053,83.011,8.16,88.389Z" transform="translate(20.157 125.263)"/>
        <path id="Path-27" data-name="Path" class="cls-87" d="M84.369,44.468C67.7,41,51.348,50.236,45.853,54.228c-7.986,5.809-8.185,14.058-21,19.917C9.64,81.09-.214,71.494-.349,71.362c15.245,5.7,22.259.333,29.867-9.543C42.33,45.168,55.129,29.154,73.735,30.276,87.8,31.123,104.1,34.8,115.5,26.668s15.525-14.781,15.525-14.781S114.631,21,96.945,20.166,62.458,21.825,50.6,29.484,30.96,49.5,30.96,49.5,36.3,15.824,78.377,14.626c44.013-1.253,39.95-4.54,51.061-15.278a54.968,54.968,0,0,0,16.755.911s-3.861,9.278-16.233,25.554C117.573,42.089,101.035,47.94,84.369,44.468Z" transform="translate(28.674 142.29)"/>
      </g>
      <g id="XMLID_53_2" data-name="XMLID_53_" class="cls-47" transform="translate(53.43 177.316)">
        <g id="XMLID_63_2" data-name="XMLID_63_" transform="translate(7.773 28.907)">
          <g id="XMLID_74_2" data-name="XMLID_74_" transform="translate(0 84.095)">
            <path id="XMLID_75_2" data-name="XMLID_75_" class="cls-48" d="M1.189,1.406C1.166.992,1.142.585,1.11.17,1.142.585,1.166.992,1.189,1.406Z" transform="translate(-1.11 -0.17)"/>
          </g>
          <path id="XMLID_73_2" data-name="XMLID_73_" class="cls-49" d="M41.7,60.244a4.644,4.644,0,0,0,4.192-5.012,4.572,4.572,0,0,0-4.755-4.423,4.659,4.659,0,0,0-4.176,5.012A4.567,4.567,0,0,0,41.7,60.244Z" transform="translate(-14.727 -9.335)"/>
          <path id="XMLID_72_2" data-name="XMLID_72_" class="cls-50" d="M42.473,94.816a4.211,4.211,0,0,0,3.795-4.539,4.144,4.144,0,0,0-4.3-4.008,4.21,4.21,0,0,0-3.787,4.539A4.136,4.136,0,0,0,42.473,94.816Z" transform="translate(-16.076 -15.368)"/>
          <path id="XMLID_71_2" data-name="XMLID_71_" class="cls-51" d="M30.671,83.532a2.636,2.636,0,0,0,2.382-2.838,2.6,2.6,0,0,0-2.7-2.514,2.627,2.627,0,0,0-2.374,2.846A2.591,2.591,0,0,0,30.671,83.532Z" transform="translate(5.237 -13.992)"/>
          <path id="XMLID_70_2" data-name="XMLID_70_" class="cls-52" d="M25.012,36.186a4.211,4.211,0,0,0,3.795-4.539,4.144,4.144,0,0,0-4.3-4.008,4.21,4.21,0,0,0-3.787,4.539A4.136,4.136,0,0,0,25.012,36.186Z" transform="translate(15.247 -5.393)"/>
          <path id="XMLID_69_2" data-name="XMLID_69_" class="cls-53" d="M23.928,57.392A2.63,2.63,0,0,0,26.3,54.553a2.6,2.6,0,0,0-2.691-2.514,2.644,2.644,0,0,0-2.382,2.846A2.6,2.6,0,0,0,23.928,57.392Z" transform="translate(17.347 -9.545)"/>
          <path id="XMLID_68_2" data-name="XMLID_68_" class="cls-54" d="M3.111,33.312a2.639,2.639,0,0,0,2.382-2.846,2.592,2.592,0,0,0-2.7-2.506A2.627,2.627,0,0,0,.42,30.805,2.591,2.591,0,0,0,3.111,33.312Z" transform="translate(54.677 -5.448)"/>
          <path id="XMLID_67_2" data-name="XMLID_67_" class="cls-55" d="M13.891,8.921a2.633,2.633,0,0,0,2.374-2.846,2.586,2.586,0,0,0-2.691-2.506A2.632,2.632,0,0,0,11.2,6.415,2.582,2.582,0,0,0,13.891,8.921Z" transform="translate(35.347 -1.298)"/>
          <path id="XMLID_66_2" data-name="XMLID_66_" class="cls-52" d="M45.053,17.476a4.216,4.216,0,0,0,3.795-4.539,4.154,4.154,0,0,0-4.3-4.008,4.21,4.21,0,0,0-3.787,4.539A4.136,4.136,0,0,0,45.053,17.476Z" transform="translate(-20.704 -2.21)"/>
          <path id="XMLID_65_2" data-name="XMLID_65_" class="cls-56" d="M54.068,30.28a2.632,2.632,0,0,0,2.374-2.846,2.6,2.6,0,0,0-2.691-2.514,2.644,2.644,0,0,0-2.382,2.846A2.6,2.6,0,0,0,54.068,30.28Z" transform="translate(-36.721 -4.931)"/>
          <path id="XMLID_64_2" data-name="XMLID_64_" class="cls-57" d="M33.25,6.2a2.644,2.644,0,0,0,2.382-2.846,2.6,2.6,0,0,0-2.7-2.514,2.633,2.633,0,0,0-2.374,2.846A2.592,2.592,0,0,0,33.25,6.2Z" transform="translate(0.61 -0.834)"/>
        </g>
        <path id="XMLID_62_2" data-name="XMLID_62_" class="cls-58" d="M51.045,125.865c6.748-.448,11.869-6.581,11.44-13.709s-6.232-12.539-12.972-12.091-11.861,6.589-11.44,13.709S44.3,126.3,51.045,125.865Z" transform="translate(-24.44 -17.02)"/>
        <path id="XMLID_61_2" data-name="XMLID_61_" class="cls-58" d="M68.186,131.7c6.74-.448,11.869-6.589,11.44-13.709s-6.232-12.539-12.972-12.091-11.869,6.581-11.44,13.709S61.446,132.143,68.186,131.7Z" transform="translate(-55.188 -18.012)"/>
        <path id="XMLID_60_2" data-name="XMLID_60_" class="cls-61" d="M66.016,110.915c6.74-.448,11.861-6.589,11.44-13.709S71.224,84.667,64.484,85.115,52.623,91.7,53.044,98.824,59.276,111.355,66.016,110.915Z" transform="translate(-51.296 -14.477)"/>
        <path id="XMLID_59_2" data-name="XMLID_59_" class="cls-60" d="M31.209,88.078a8.016,8.016,0,0,0,7.224-8.655A7.883,7.883,0,0,0,30.24,71.8a8.019,8.019,0,0,0-7.224,8.647A7.885,7.885,0,0,0,31.209,88.078Z" transform="translate(11.568 -12.212)"/>
        <path id="XMLID_58_2" data-name="XMLID_58_" class="cls-61" d="M63,25.826c6.74-.448,11.869-6.589,11.44-13.709S68.2-.422,61.464.026,49.6,6.615,50.024,13.735,56.256,26.274,63,25.826Z" transform="translate(-45.88 0)"/>
        <path id="XMLID_57_2" data-name="XMLID_57_" class="cls-58" d="M25.255,112.175c6.74-.448,11.869-6.589,11.44-13.709S30.463,85.927,23.723,86.375s-11.861,6.589-11.44,13.709S18.515,112.615,25.255,112.175Z" transform="translate(21.825 -14.691)"/>
        <path id="XMLID_56_2" data-name="XMLID_56_" class="cls-62" d="M39.784,33.181A7.032,7.032,0,0,0,46.119,25.6a6.927,6.927,0,0,0-7.185-6.689,7.026,7.026,0,0,0-6.327,7.585A6.9,6.9,0,0,0,39.784,33.181Z" transform="translate(-3.732 -3.215)"/>
        <path id="XMLID_55_2" data-name="XMLID_55_" class="cls-63" d="M28.86,45.42a2.632,2.632,0,0,0,2.374-2.846,2.592,2.592,0,0,0-2.691-2.514,2.632,2.632,0,0,0-2.374,2.846A2.592,2.592,0,0,0,28.86,45.42Z" transform="translate(16.267 -6.815)"/>
        <path id="XMLID_54_2" data-name="XMLID_54_" class="cls-64" d="M15.8,92.723a2.63,2.63,0,0,0,2.374-2.838,2.58,2.58,0,0,0-2.691-2.506A2.639,2.639,0,0,0,13.1,90.225,2.591,2.591,0,0,0,15.8,92.723Z" transform="translate(39.705 -14.865)"/>
      </g>
      <g id="XMLID_30_2" data-name="XMLID_30_" transform="translate(58.987 101.901)">
        <g id="XMLID_40_2" data-name="XMLID_40_" transform="translate(8.567 13.228)">
          <g id="XMLID_51_2" data-name="XMLID_51_" transform="translate(0 84.095)">
            <path id="XMLID_52_2" data-name="XMLID_52_" class="cls-65" d="M1.189,1.636C1.166,1.222,1.142.815,1.11.4,1.142.807,1.166,1.222,1.189,1.636Z" transform="translate(-1.11 -0.4)"/>
          </g>
          <path id="XMLID_50_2" data-name="XMLID_50_" class="cls-66" d="M41.7,59.474a4.644,4.644,0,0,0,4.192-5.012,4.572,4.572,0,0,0-4.755-4.423,4.659,4.659,0,0,0-4.176,5.012A4.578,4.578,0,0,0,41.7,59.474Z" transform="translate(-14.727 -8.565)"/>
          <path id="XMLID_49_2" data-name="XMLID_49_" class="cls-67" d="M42.473,94.046a4.211,4.211,0,0,0,3.795-4.539,4.144,4.144,0,0,0-4.3-4.008,4.21,4.21,0,0,0-3.787,4.539A4.147,4.147,0,0,0,42.473,94.046Z" transform="translate(-16.076 -14.598)"/>
          <path id="XMLID_48_2" data-name="XMLID_48_" class="cls-51" d="M30.671,82.762a2.636,2.636,0,0,0,2.382-2.838,2.6,2.6,0,0,0-2.7-2.514,2.627,2.627,0,0,0-2.374,2.846A2.591,2.591,0,0,0,30.671,82.762Z" transform="translate(5.237 -13.222)"/>
          <path id="XMLID_47_2" data-name="XMLID_47_" class="cls-52" d="M25.012,35.406a4.211,4.211,0,0,0,3.795-4.539,4.144,4.144,0,0,0-4.3-4.008A4.21,4.21,0,0,0,20.717,31.4,4.136,4.136,0,0,0,25.012,35.406Z" transform="translate(15.247 -4.621)"/>
          <path id="XMLID_46_2" data-name="XMLID_46_" class="cls-68" d="M23.928,56.611A2.633,2.633,0,0,0,26.3,53.765a2.586,2.586,0,0,0-2.691-2.506,2.644,2.644,0,0,0-2.382,2.846A2.6,2.6,0,0,0,23.928,56.611Z" transform="translate(17.347 -8.773)"/>
          <path id="XMLID_45_2" data-name="XMLID_45_" class="cls-54" d="M3.111,32.532a2.639,2.639,0,0,0,2.382-2.846,2.592,2.592,0,0,0-2.7-2.506A2.627,2.627,0,0,0,.42,30.025,2.591,2.591,0,0,0,3.111,32.532Z" transform="translate(54.677 -4.676)"/>
          <path id="XMLID_44_2" data-name="XMLID_44_" class="cls-69" d="M13.891,8.14a2.633,2.633,0,0,0,2.374-2.846,2.6,2.6,0,0,0-2.691-2.514A2.632,2.632,0,0,0,11.2,5.625,2.583,2.583,0,0,0,13.891,8.14Z" transform="translate(35.347 -0.525)"/>
          <path id="XMLID_43_2" data-name="XMLID_43_" class="cls-52" d="M45.053,16.706a4.216,4.216,0,0,0,3.795-4.539,4.154,4.154,0,0,0-4.3-4.008A4.21,4.21,0,0,0,40.758,12.7,4.136,4.136,0,0,0,45.053,16.706Z" transform="translate(-20.704 -1.44)"/>
          <path id="XMLID_42_2" data-name="XMLID_42_" class="cls-56" d="M54.068,29.5a2.632,2.632,0,0,0,2.374-2.846,2.6,2.6,0,0,0-2.691-2.514,2.644,2.644,0,0,0-2.382,2.846A2.6,2.6,0,0,0,54.068,29.5Z" transform="translate(-36.721 -4.159)"/>
          <path id="XMLID_41_2" data-name="XMLID_41_" class="cls-70" d="M33.25,5.422a2.641,2.641,0,0,0,2.382-2.838,2.6,2.6,0,0,0-2.7-2.514,2.633,2.633,0,0,0-2.374,2.846A2.591,2.591,0,0,0,33.25,5.422Z" transform="translate(0.61 -0.064)"/>
        </g>
        <path id="XMLID_39_2" data-name="XMLID_39_" class="cls-61" d="M52.045,107.085c6.748-.448,11.869-6.581,11.44-13.709S57.253,80.837,50.513,81.285s-11.861,6.589-11.44,13.709S45.3,107.533,52.045,107.085Z" transform="translate(-25.44 -13.928)"/>
        <path id="XMLID_38_2" data-name="XMLID_38_" class="cls-71" d="M69.186,112.925c6.74-.448,11.869-6.589,11.44-13.709S74.394,86.677,67.654,87.125s-11.869,6.589-11.44,13.709S62.446,113.365,69.186,112.925Z" transform="translate(-56.188 -14.922)"/>
        <path id="XMLID_37_2" data-name="XMLID_37_" class="cls-72" d="M67.016,92.135c6.74-.448,11.861-6.589,11.44-13.709S72.224,65.887,65.484,66.335s-11.861,6.581-11.44,13.709S60.276,92.583,67.016,92.135Z" transform="translate(-52.296 -11.384)"/>
        <path id="XMLID_36_2" data-name="XMLID_36_" class="cls-60" d="M31,69.3a8.016,8.016,0,0,0,7.224-8.655,7.883,7.883,0,0,0-8.193-7.626,8.019,8.019,0,0,0-7.224,8.647A7.885,7.885,0,0,0,31,69.3Z" transform="translate(12.738 -9.12)"/>
        <path id="XMLID_35_2" data-name="XMLID_35_" class="cls-61" d="M18,47.826c6.74-.448,11.869-6.589,11.44-13.709S23.2,21.578,16.464,22.026,4.6,28.615,5.024,35.735,11.256,48.274,18,47.826Z" transform="translate(35.639 -3.846)"/>
        <path id="XMLID_34_2" data-name="XMLID_34_" class="cls-61" d="M24,100.826c6.74-.448,11.869-6.589,11.44-13.709S29.2,74.578,22.464,75.026,10.6,81.615,11.024,88.735,17.256,101.274,24,100.826Z" transform="translate(24.876 -12.863)"/>
        <path id="XMLID_33_2" data-name="XMLID_33_" class="cls-73" d="M39.574,14.411A7.032,7.032,0,0,0,45.91,6.826,6.927,6.927,0,0,0,38.725.137,7.026,7.026,0,0,0,32.4,7.722,6.909,6.909,0,0,0,39.574,14.411Z" transform="translate(-2.561 -0.124)"/>
        <path id="XMLID_32_2" data-name="XMLID_32_" class="cls-74" d="M28.65,26.64a2.632,2.632,0,0,0,2.374-2.846,2.592,2.592,0,0,0-2.691-2.514,2.632,2.632,0,0,0-2.374,2.846A2.587,2.587,0,0,0,28.65,26.64Z" transform="translate(17.437 -3.722)"/>
        <path id="XMLID_31_2" data-name="XMLID_31_" class="cls-64" d="M16.8,73.953a2.63,2.63,0,0,0,2.374-2.838,2.58,2.58,0,0,0-2.691-2.506A2.639,2.639,0,0,0,14.1,71.455,2.6,2.6,0,0,0,16.8,73.953Z" transform="translate(38.705 -11.775)"/>
      </g>
      <g id="XMLID_1107_" transform="translate(64.085 115.101)">
        <path id="XMLID_1124_" class="cls-75" d="M43.5,142.477,13.63,101.507l28.6-38.082L18.243,13.16" transform="translate(-2.253 -2.264)"/>
        <g id="XMLID_1120_" transform="translate(28.382 124.985)">
          <path id="XMLID_1123_" class="cls-26" d="M4.843.64l6.772,9.543L7.146,21.071.35,11.478Z" transform="translate(10.995 -0.64)"/>
          <path id="XMLID_1122_" class="cls-27" d="M5.98,15.061,17.325,13.7l6.8,9.593L12.728,24.762Z" transform="translate(-5.98 -2.862)"/>
          <path id="XMLID_1121_" class="cls-31" d="M13.421,1.893,24.718.64,20.225,11.478,8.88,12.839Z" transform="translate(-8.88 -0.64)"/>
        </g>
        <g id="XMLID_1116_" transform="translate(0 88.048)">
          <path id="XMLID_1119_" class="cls-26" d="M18.662,15.62,11.4,24.757.22,22.8l7.3-9.178Z" transform="translate(3.853 -2.425)"/>
          <path id="XMLID_1118_" class="cls-27" d="M21.665.13l3.962,11.195-7.3,9.178L14.25,9.283Z" transform="translate(-14.25 -0.13)"/>
          <path id="XMLID_1117_" class="cls-31" d="M11.478,2.147,15.32,13.325l-11.138-2L.22.13Z" transform="translate(7.195 -0.13)"/>
        </g>
        <g id="XMLID_1112_" transform="translate(28.644 50.265)">
          <path id="XMLID_1115_" class="cls-88" d="M.96.6,12.233,2.1l4.43,10.9L5.334,11.5Z" transform="translate(5.995 -0.6)"/>
          <path id="XMLID_1114_" class="cls-89" d="M.96,23.232l6.915-9.5L19.2,15.24l-6.867,9.61Z" transform="translate(3.454 -2.834)"/>
          <path id="XMLID_1113_" class="cls-90" d="M15.23,9.994,22.185.6l4.374,10.9L19.644,21Z" transform="translate(-15.23 -0.6)"/>
        </g>
        <g id="XMLID_1108_" transform="translate(4.66 0)">
          <path id="XMLID_1111_" class="cls-32" d="M.17.03l11.273,1.5,4.43,10.9L4.544,10.926Z" transform="translate(6.785 -0.03)"/>
          <path id="XMLID_1110_" class="cls-21" d="M.17,22.662l6.915-9.5,11.329,1.51-6.867,9.618Z" transform="translate(4.244 -2.264)"/>
          <path id="XMLID_1109_" class="cls-22" d="M14.44,9.424,21.395.03l4.374,10.9-6.915,9.5Z" transform="translate(-14.44 -0.03)"/>
        </g>
      </g>
    </g>
  </g>
</svg>
