<svg xmlns="http://www.w3.org/2000/svg" width="200" height="200" viewBox="0 0 20 20">
  <g id="noImage" transform="translate(-2 -2)">
    <path id="Path_31" data-name="Path 31" d="M19,2H5A3.009,3.009,0,0,0,2,5v8.86L5.88,9.98a3.075,3.075,0,0,1,4.24,0l2.871,2.887.888-.888a3.008,3.008,0,0,1,4.242,0L22,15.858V5A3.009,3.009,0,0,0,19,2Z" fill="#b2b1ff"/>
    <path id="Path_32" data-name="Path 32" d="M10.12,9.98a3.075,3.075,0,0,0-4.24,0L2,13.86V19a3.009,3.009,0,0,0,3,3H19a3,3,0,0,0,2.16-.92Z" fill="#6563ff"/>
    <path id="Path_33" data-name="Path 33" d="M22,15.858l-3.879-3.879a3.008,3.008,0,0,0-4.242,0l-.888.888,8.164,8.209A2.965,2.965,0,0,0,22,19Z" fill="#d8d8ff"/>
  </g>
</svg>
